<svg width="735" height="102" viewBox="0 0 735 102" fill="none" xmlns="http://www.w3.org/2000/svg">
<g opacity="0.5">
<mask id="mask0_1514_724" style="mask-type:luminance" maskUnits="userSpaceOnUse" x="-27" y="0" width="790" height="139">
<path d="M427.951 14.8613C427.572 14.7826 427.192 14.7059 426.811 14.6311C426.535 14.4458 426.26 14.2624 425.983 14.081C426.359 14.1857 426.733 14.2956 427.106 14.4048C427.389 14.555 427.67 14.7072 427.951 14.8613ZM432.095 17.3073C431.447 17.1974 430.792 17.1012 430.139 17.003C429.677 16.6545 429.212 16.3125 428.744 15.9764C429.379 16.1161 430.014 16.2585 430.642 16.41C431.129 16.7033 431.613 17.0024 432.095 17.3073ZM435.709 17.9939C435.336 17.9166 434.962 17.8405 434.587 17.7664C434.315 17.5824 434.041 17.4009 433.767 17.2208C434.136 17.3229 434.5 17.4309 434.866 17.5375C435.148 17.6883 435.428 17.8405 435.709 17.9939ZM435.831 19.8366C434.997 19.7267 434.16 19.622 433.316 19.531C432.759 19.0642 432.198 18.6058 431.632 18.1578C432.448 18.2937 433.257 18.4439 434.063 18.5993C434.658 19.003 435.246 19.4146 435.831 19.8366ZM439.853 20.44C439.209 20.3301 438.558 20.2345 437.908 20.137C437.447 19.7898 436.984 19.4478 436.518 19.1123C437.148 19.2514 437.778 19.3925 438.401 19.5427C438.887 19.8366 439.372 20.135 439.853 20.44ZM443.464 21.1266C443.091 21.0492 442.719 20.9732 442.344 20.899C442.072 20.715 441.799 20.5336 441.525 20.3542C441.892 20.4562 442.258 20.5642 442.623 20.6708C442.904 20.821 443.184 20.9732 443.464 21.1266ZM517.311 73.8815C517.087 73.8145 516.864 73.7495 516.641 73.6819L516.537 73.6279L517.165 73.7911L517.311 73.8815ZM439.297 22.4907C438.332 22.3997 437.363 22.3191 436.388 22.2495C435.783 21.6864 435.174 21.1357 434.558 20.5967C435.502 20.715 436.441 20.8405 437.375 20.979C438.021 21.4712 438.662 21.9751 439.297 22.4907ZM443.587 22.9693C442.755 22.8601 441.921 22.7554 441.079 22.665C440.525 22.1981 439.965 21.7411 439.401 21.2931C440.214 21.4283 441.019 21.5779 441.821 21.7326C442.415 22.1357 443.002 22.548 443.587 22.9693ZM447.607 23.572C446.963 23.4628 446.313 23.3666 445.663 23.269C445.202 22.9212 444.74 22.5805 444.274 22.2443C444.904 22.3835 445.532 22.5245 446.156 22.6747C446.643 22.9686 447.127 23.2677 447.607 23.572ZM451.22 24.2586C450.847 24.1813 450.473 24.1058 450.099 24.0311C449.827 23.8477 449.555 23.6663 449.282 23.4868C449.649 23.5889 450.013 23.6962 450.379 23.8028C450.66 23.953 450.941 24.1052 451.22 24.2586ZM522.363 75.3353C521.911 75.2105 521.458 75.0876 521.007 74.9602C520.812 74.8496 520.62 74.7339 520.427 74.6227C520.873 74.7339 521.321 74.8405 521.766 74.9485L522.363 75.3353ZM525.068 77.0155L524.402 76.8165L524.262 76.7443L524.899 76.9101L525.068 77.0155ZM442.54 25.2775C441.475 25.2164 440.403 25.1696 439.326 25.1325C438.697 24.4836 438.061 23.849 437.419 23.2287C438.464 23.3106 439.502 23.4069 440.533 23.5168C441.209 24.0896 441.878 24.6767 442.54 25.2775ZM447.053 25.6228C446.089 25.5317 445.12 25.4511 444.146 25.3822C443.543 24.8198 442.934 24.269 442.32 23.7307C443.262 23.849 444.199 23.9745 445.13 24.1123C445.777 24.6039 446.419 25.1072 447.053 25.6228ZM451.344 26.1013C450.512 25.9914 449.678 25.8874 448.836 25.797C448.282 25.3302 447.721 24.8731 447.157 24.4251C447.969 24.5603 448.775 24.7099 449.577 24.8646C450.17 25.2678 450.759 25.6793 451.344 26.1013ZM455.362 26.7041C454.718 26.5948 454.068 26.4986 453.418 26.4011C452.958 26.0532 452.495 25.7125 452.029 25.3763C452.659 25.5155 453.288 25.6572 453.912 25.8074C454.398 26.1007 454.881 26.3998 455.362 26.7041ZM458.974 27.3907C458.601 27.3133 458.227 27.2372 457.853 27.1631C457.581 26.9797 457.308 26.7983 457.035 26.6189C457.403 26.721 457.767 26.8282 458.132 26.9349C458.414 27.0851 458.695 27.2372 458.974 27.3907ZM527.387 76.6637C526.759 76.5051 526.132 76.3458 525.505 76.1819C525.204 75.9992 524.911 75.808 524.612 75.6227C525.237 75.7671 525.86 75.9069 526.484 76.046C526.783 76.2534 527.085 76.4582 527.387 76.6637ZM530.12 78.4687C529.668 78.3445 529.216 78.2209 528.765 78.0935C528.561 77.9778 528.36 77.8575 528.157 77.7411C528.606 77.8523 529.055 77.9596 529.503 78.0681C529.709 78.2014 529.913 78.3367 530.12 78.4687ZM532.823 80.1481L532.156 79.9492L532.015 79.8764L532.652 80.0422L532.823 80.1481ZM445.606 28.2184C444.455 28.1917 443.3 28.1768 442.136 28.18C441.503 27.4596 440.864 26.7548 440.215 26.0656C441.347 26.1124 442.472 26.1735 443.589 26.2483C444.269 26.8894 444.941 27.5461 445.606 28.2184ZM450.296 28.4102C449.232 28.3484 448.16 28.3023 447.083 28.2645C446.455 27.6156 445.82 26.9817 445.179 26.3614C446.223 26.4433 447.261 26.5396 448.29 26.6494C448.965 27.2223 449.634 27.8087 450.296 28.4102ZM454.809 28.7554C453.845 28.6644 452.876 28.5838 451.901 28.5142C451.299 27.9518 450.69 27.4011 450.076 26.8627C451.017 26.981 451.956 27.1059 452.887 27.2444C453.534 27.7353 454.174 28.2398 454.809 28.7554ZM459.098 29.2333C458.266 29.1241 457.431 29.0194 456.59 28.929C456.035 28.4622 455.475 28.0051 454.91 27.5571C455.723 27.6924 456.528 27.8419 457.331 27.9967C457.925 28.3998 458.514 28.8114 459.098 29.2333ZM463.116 29.8367C462.472 29.7268 461.822 29.6313 461.172 29.5337C460.712 29.1859 460.249 28.8452 459.783 28.509C460.413 28.6488 461.042 28.7899 461.667 28.9401C462.152 29.2327 462.635 29.5318 463.116 29.8367ZM466.726 30.522C466.354 30.4447 465.981 30.3686 465.607 30.2951C465.335 30.1118 465.063 29.9297 464.789 29.7503C465.156 29.8523 465.52 29.9603 465.885 30.0669C466.165 30.2164 466.446 30.3686 466.726 30.522ZM532.416 77.8828C531.652 77.706 530.888 77.5259 530.124 77.3412C529.75 77.0987 529.385 76.8464 529.015 76.5993C529.782 76.7632 530.549 76.9231 531.315 77.0798C531.678 77.3503 532.048 77.6162 532.416 77.8828ZM535.143 79.797C534.515 79.6384 533.888 79.4784 533.261 79.3146C532.953 79.128 532.654 78.9316 532.349 78.7424C532.974 78.8867 533.599 79.0272 534.224 79.167C534.53 79.379 534.835 79.5883 535.143 79.797ZM537.873 81.6007C537.422 81.4759 536.97 81.353 536.519 81.2255C536.315 81.1098 536.115 80.9895 535.911 80.8731C536.36 80.9843 536.808 81.0916 537.256 81.2002C537.462 81.3335 537.666 81.468 537.873 81.6007ZM540.577 83.2795L539.91 83.0806L539.77 83.0077L540.407 83.1735L540.577 83.2795ZM448.521 31.3263C447.299 31.3387 446.068 31.3673 444.832 31.407C444.201 30.6144 443.561 29.8393 442.915 29.0805C444.12 29.087 445.318 29.1085 446.507 29.1443C447.187 29.8543 447.857 30.5812 448.521 31.3263ZM453.361 31.3504C452.211 31.3237 451.055 31.3088 449.891 31.312C449.258 30.5916 448.619 29.8868 447.972 29.1976C449.104 29.2444 450.228 29.3055 451.345 29.3803C452.024 30.0214 452.696 30.6774 453.361 31.3504ZM458.05 31.5422C456.985 31.4811 455.914 31.4343 454.837 31.3966C454.209 30.7477 453.574 30.1137 452.933 29.4934C453.977 29.5753 455.015 29.6716 456.045 29.7815C456.721 30.3543 457.389 30.9408 458.05 31.5422ZM462.563 31.8875C461.6 31.7964 460.63 31.7158 459.656 31.6462C459.052 31.0838 458.445 30.5331 457.83 29.9947C458.772 30.1131 459.709 30.2379 460.641 30.3771C461.288 30.868 461.929 31.3719 462.563 31.8875ZM466.853 32.3654C466.021 32.2561 465.186 32.1515 464.345 32.0611C463.79 31.5942 463.23 31.1371 462.665 30.6891C463.478 30.8244 464.283 30.9739 465.086 31.1287C465.679 31.5318 466.269 31.9434 466.853 32.3654ZM470.869 32.9681C470.225 32.8589 469.575 32.7633 468.925 32.6651C468.464 32.3179 468.003 31.9765 467.537 31.6404C468.167 31.7795 468.795 31.9206 469.418 32.0708C469.904 32.3647 470.389 32.6632 470.869 32.9681ZM474.48 33.6541C474.108 33.5767 473.735 33.5013 473.361 33.4278C473.089 33.2444 472.817 33.063 472.543 32.8836C472.909 32.9857 473.272 33.0929 473.637 33.1989C473.919 33.3485 474.2 33.5 474.48 33.6541ZM537.484 79.0051C536.607 78.8198 535.729 78.6299 534.85 78.4349C534.426 78.1403 534.012 77.8367 533.594 77.5369C534.482 77.7112 535.368 77.8802 536.253 78.0454C536.66 78.3692 537.073 78.6858 537.484 79.0051ZM540.172 81.0155C539.408 80.8393 538.644 80.6586 537.88 80.4745C537.5 80.2281 537.13 79.9719 536.753 79.721C537.521 79.8855 538.289 80.0454 539.056 80.2021C539.425 80.4765 539.799 80.745 540.172 81.0155ZM542.895 82.9278C542.268 82.7691 541.642 82.6098 541.015 82.446C540.707 82.2593 540.407 82.0636 540.102 81.8744C540.727 82.0188 541.353 82.1599 541.978 82.299C542.282 82.511 542.589 82.7197 542.895 82.9278ZM545.626 84.7321C545.174 84.6079 544.724 84.4843 544.273 84.3576C544.069 84.2418 543.869 84.1228 543.666 84.0058C544.114 84.117 544.563 84.2243 545.012 84.3328C545.217 84.4655 545.421 84.6001 545.626 84.7321ZM548.332 86.4122L547.664 86.2132L547.525 86.1411L548.163 86.3069L548.332 86.4122ZM451.277 34.5819C450.062 34.632 448.839 34.695 447.608 34.7737C446.896 33.9551 446.199 33.1222 445.521 32.2756C446.788 32.2379 448.046 32.2165 449.297 32.2106C449.966 32.9824 450.625 33.7731 451.277 34.5819ZM456.275 34.4584C455.053 34.4707 453.822 34.4993 452.586 34.539C451.955 33.7464 451.317 32.9714 450.669 32.2126C451.874 32.2197 453.072 32.2412 454.262 32.2769C454.941 32.9863 455.612 33.7132 456.275 34.4584ZM461.115 34.4824C459.966 34.4558 458.809 34.4408 457.644 34.4441C457.013 33.7236 456.373 33.0188 455.726 32.3296C456.857 32.3764 457.981 32.4382 459.099 32.513C459.779 33.1541 460.451 33.8101 461.115 34.4824ZM465.804 34.6742C464.74 34.6131 463.668 34.5663 462.591 34.5286C461.963 33.8797 461.328 33.2457 460.687 32.6255C461.733 32.7074 462.769 32.8036 463.8 32.9135C464.475 33.4863 465.143 34.0728 465.804 34.6742ZM470.317 35.0195C469.354 34.9285 468.384 34.8478 467.41 34.7783C466.808 34.2158 466.199 33.6651 465.585 33.1268C466.527 33.2451 467.465 33.3706 468.396 33.5091C469.042 34 469.683 34.5039 470.317 35.0195ZM474.607 35.4974C473.774 35.3875 472.939 35.2835 472.097 35.1931C471.542 34.7263 470.982 34.2692 470.419 33.8212C471.231 33.9564 472.036 34.1053 472.838 34.2601C473.432 34.6632 474.022 35.0754 474.607 35.4974ZM478.624 36.1008C477.98 35.9909 477.329 35.8953 476.68 35.7978C476.219 35.4506 475.758 35.1092 475.292 34.7731C475.921 34.9122 476.55 35.0527 477.172 35.2029C477.659 35.4961 478.142 35.7952 478.624 36.1008ZM482.237 36.7868C481.864 36.7094 481.491 36.6333 481.116 36.5592C480.844 36.3758 480.571 36.1944 480.298 36.015C480.665 36.117 481.029 36.2243 481.395 36.331C481.677 36.4812 481.958 36.6333 482.237 36.7868ZM542.62 80.0422C541.644 79.8542 540.668 79.6618 539.689 79.4628C539.234 79.1234 538.786 78.7743 538.339 78.4277C539.331 78.6065 540.319 78.7775 541.305 78.9453C541.737 79.3152 542.181 79.6767 542.62 80.0422ZM545.24 82.1371C544.362 81.9518 543.484 81.7626 542.605 81.5669C542.177 81.2691 541.758 80.9622 541.335 80.6592C542.224 80.8335 543.111 81.0025 543.996 81.1683C544.406 81.496 544.824 81.8153 545.24 82.1371ZM547.924 84.1462C547.161 83.9694 546.397 83.7893 545.633 83.6053C545.254 83.3588 544.884 83.1033 544.508 82.853C545.276 83.0168 546.045 83.1768 546.812 83.3341C547.179 83.6079 547.552 83.8771 547.924 84.1462ZM550.649 86.0598C550.022 85.9011 549.395 85.7418 548.769 85.578C548.461 85.3914 548.163 85.1963 547.857 85.0071C548.482 85.1515 549.108 85.2919 549.732 85.4317C550.037 85.6424 550.343 85.8511 550.649 86.0598ZM553.381 87.8648C552.93 87.7399 552.479 87.617 552.028 87.4896C551.824 87.3738 551.624 87.2542 551.422 87.1378C551.87 87.249 552.318 87.3563 552.767 87.4649C552.971 87.5982 553.175 87.7321 553.381 87.8648ZM556.087 89.5442L555.419 89.3453L555.276 89.2711L555.914 89.4369L556.087 89.5442ZM454.067 37.9948C452.986 38.0709 451.901 38.1528 450.807 38.2491C449.973 37.3908 449.155 36.5163 448.359 35.6255C449.568 35.5572 450.772 35.4974 451.968 35.4532C452.65 36.3141 453.35 37.1613 454.067 37.9948ZM459.031 37.7139C457.816 37.7647 456.593 37.8271 455.363 37.9057C454.65 37.0871 453.954 36.2542 453.276 35.4077C454.544 35.37 455.802 35.3485 457.052 35.3426C457.72 36.1144 458.38 36.9051 459.031 37.7139ZM464.03 37.5904C462.808 37.6028 461.578 37.6314 460.34 37.671C459.709 36.8784 459.071 36.1027 458.424 35.3446C459.629 35.3511 460.827 35.3726 462.016 35.4083C462.696 36.1183 463.367 36.8453 464.03 37.5904ZM468.869 37.6145C467.719 37.5878 466.564 37.5728 465.398 37.5761C464.766 36.8557 464.126 36.1509 463.48 35.4616C464.612 35.5085 465.737 35.5702 466.853 35.645C467.533 36.2861 468.205 36.9422 468.869 37.6145ZM473.559 37.8063C472.495 37.7445 471.424 37.6983 470.346 37.6606C469.718 37.0117 469.083 36.3778 468.442 35.7575C469.488 35.8394 470.524 35.9356 471.555 36.0455C472.23 36.6183 472.898 37.2048 473.559 37.8063ZM478.071 38.1509C477.107 38.0605 476.139 37.9792 475.164 37.9096C474.561 37.3472 473.952 36.7965 473.338 36.2581C474.28 36.3765 475.217 36.5013 476.148 36.6398C476.795 37.1314 477.437 37.6353 478.071 38.1509ZM482.36 38.6294C481.528 38.5202 480.693 38.4155 479.852 38.3251C479.297 37.8583 478.737 37.4012 478.173 36.9532C478.985 37.0884 479.791 37.2373 480.592 37.3927C481.186 37.7952 481.775 38.2074 482.36 38.6294ZM486.379 39.2328C485.735 39.1229 485.085 39.0273 484.435 38.9298C483.974 38.5826 483.512 38.2413 483.046 37.9051C483.677 38.0449 484.305 38.186 484.929 38.3362C485.415 38.6294 485.898 38.9279 486.379 39.2328ZM489.989 39.9181C489.617 39.8408 489.244 39.7647 488.87 39.6912C488.599 39.5079 488.326 39.3258 488.052 39.1463C488.419 39.2484 488.783 39.3564 489.148 39.463C489.429 39.6132 489.709 39.7647 489.989 39.9181ZM547.835 80.9999C546.773 80.8146 545.707 80.6234 544.64 80.4251C544.164 80.0454 543.697 79.6559 543.232 79.2671C544.315 79.4446 545.395 79.615 546.469 79.7801C546.918 80.1924 547.38 80.5942 547.835 80.9999ZM550.375 83.1748C549.399 82.9869 548.423 82.7945 547.443 82.5955C546.984 82.2529 546.533 81.9011 546.082 81.5513C547.073 81.7301 548.063 81.9017 549.05 82.0695C549.486 82.4434 549.931 82.8075 550.375 83.1748ZM552.992 85.2685C552.115 85.0832 551.237 84.8933 550.358 84.6983C549.931 84.4011 549.512 84.0949 549.09 83.7919C549.979 83.9661 550.866 84.1358 551.751 84.301C552.161 84.6274 552.577 84.9473 552.992 85.2685ZM555.678 87.2783C554.915 87.1021 554.15 86.9213 553.387 86.7373C553.008 86.4915 552.638 86.236 552.263 85.9857C553.031 86.1495 553.799 86.3095 554.565 86.4668C554.932 86.7399 555.307 87.0084 555.678 87.2783ZM558.404 89.1918C557.776 89.0332 557.149 88.8739 556.523 88.71C556.216 88.5234 555.916 88.3283 555.612 88.1391C556.237 88.2835 556.862 88.4239 557.488 88.5637C557.791 88.775 558.098 88.9837 558.404 89.1918ZM561.137 90.9968C560.686 90.8726 560.234 90.749 559.783 90.6223C559.578 90.5059 559.378 90.3856 559.173 90.2686C559.622 90.3797 560.07 90.487 560.518 90.5956C560.724 90.7289 560.93 90.8641 561.137 90.9968ZM563.841 92.6763L563.173 92.4773L563.032 92.4045L563.669 92.5703L563.841 92.6763ZM457.259 41.504C456.326 41.5918 455.391 41.6841 454.45 41.7862C453.485 40.8999 452.54 39.9962 451.618 39.0722C452.683 38.9825 453.742 38.9006 454.796 38.831C455.596 39.7387 456.418 40.6295 457.259 41.504ZM461.821 41.1262C460.739 41.2023 459.653 41.2842 458.56 41.3804C457.725 40.5222 456.909 39.647 456.112 38.7562C457.322 38.6879 458.527 38.6281 459.722 38.5846C460.405 39.4461 461.105 40.2933 461.821 41.1262ZM466.786 40.846C465.57 40.8967 464.348 40.9591 463.118 41.0371C462.405 40.2185 461.709 39.3856 461.031 38.539C462.297 38.5013 463.556 38.4799 464.806 38.4747C465.475 39.2465 466.135 40.0371 466.786 40.846ZM471.784 40.7224C470.561 40.7348 469.331 40.7634 468.094 40.8031C467.464 40.0105 466.825 39.2348 466.178 38.4766C467.383 38.4831 468.58 38.5046 469.77 38.5403C470.449 39.2504 471.122 39.9773 471.784 40.7224ZM476.624 40.7465C475.473 40.7198 474.318 40.7049 473.153 40.7081C472.521 39.9877 471.882 39.2829 471.234 38.5937C472.366 38.6405 473.491 38.7022 474.608 38.777C475.288 39.4181 475.96 40.0742 476.624 40.7465ZM481.313 40.9383C480.249 40.8772 479.177 40.831 478.101 40.7933C477.473 40.1444 476.838 39.5098 476.196 38.8895C477.24 38.9714 478.277 39.0677 479.307 39.1775C479.983 39.7504 480.651 40.3369 481.313 40.9383ZM485.826 41.2836C484.862 41.1925 483.893 41.1119 482.918 41.0423C482.316 40.4799 481.707 39.9292 481.093 39.3908C482.034 39.5092 482.973 39.634 483.904 39.7725C484.551 40.264 485.191 40.7679 485.826 41.2836ZM490.116 41.7615C489.284 41.6522 488.45 41.5475 487.608 41.4572C487.053 40.9903 486.493 40.5332 485.928 40.0852C486.741 40.2205 487.546 40.37 488.348 40.5248C488.942 40.9279 489.532 41.3401 490.116 41.7615ZM494.132 42.3642C493.489 42.255 492.838 42.1594 492.189 42.0612C491.728 41.714 491.266 41.3726 490.8 41.0365C491.429 41.1756 492.058 41.3167 492.682 41.4669C493.167 41.7608 493.651 42.0592 494.132 42.3642ZM497.743 43.0502C497.371 42.9728 496.997 42.8974 496.624 42.8239C496.352 42.6405 496.079 42.4591 495.806 42.279C496.172 42.3811 496.536 42.4884 496.9 42.5944C497.182 42.7446 497.463 42.8961 497.743 43.0502ZM553.14 81.8816C552 81.7021 550.855 81.5155 549.706 81.3218C549.221 80.9043 548.744 80.4784 548.269 80.0513C549.436 80.2242 550.596 80.3894 551.751 80.548C552.206 80.9999 552.677 81.4375 553.14 81.8816ZM555.59 84.1326C554.527 83.9473 553.462 83.7561 552.394 83.5578C551.916 83.1742 551.446 82.7828 550.976 82.3913C552.06 82.5688 553.141 82.7399 554.216 82.905C554.668 83.3198 555.131 83.7243 555.59 84.1326ZM558.127 86.3049C557.151 86.117 556.174 85.9245 555.195 85.7249C554.736 85.3829 554.287 85.0318 553.836 84.6833C554.828 84.8621 555.818 85.0338 556.804 85.2015C557.239 85.5747 557.684 85.9389 558.127 86.3049ZM560.747 88.3999C559.869 88.2139 558.991 88.0254 558.112 87.8296C557.685 87.5325 557.267 87.2256 556.846 86.9233C557.734 87.0975 558.62 87.2666 559.506 87.4324C559.915 87.7588 560.332 88.0787 560.747 88.3999ZM563.434 90.4109C562.67 90.2341 561.905 90.054 561.142 89.87C560.763 89.6236 560.393 89.3687 560.018 89.1183C560.786 89.2822 561.553 89.4421 562.32 89.5995C562.688 89.8726 563.061 90.1411 563.434 90.4109ZM566.16 92.3251C565.533 92.1671 564.906 92.0065 564.279 91.8427C563.971 91.6554 563.671 91.4591 563.364 91.2699C563.989 91.4142 564.615 91.5547 565.24 91.6945C565.545 91.9064 565.852 92.1158 566.16 92.3251ZM568.89 94.1288C568.439 94.004 567.987 93.8811 567.536 93.7543C567.332 93.6386 567.132 93.5183 566.929 93.4012C567.377 93.5124 567.824 93.6197 568.273 93.7283C568.48 93.8609 568.684 93.9962 568.89 94.1288ZM571.595 95.8083L570.928 95.6093L570.786 95.5365L571.424 95.7023L571.595 95.8083ZM20.5714 112.778C25.9327 114.25 31.3872 115.63 36.9149 116.908C86.8367 128.447 142.752 131.682 189.766 119.732C227.338 110.183 266.147 95.7244 303.977 81.63C356.717 61.9808 407.551 43.0456 450.3 39.1866C451.223 40.1223 452.168 41.0378 453.135 41.9351C411.222 46.7446 362.097 65.0413 311.204 84.0019C273.392 98.0892 234.603 112.541 197.143 122.062C150.385 133.945 94.7292 130.718 45.0144 119.227C36.6754 117.299 28.5054 115.138 20.5714 112.778ZM460.889 45.0671C460.113 45.1562 459.336 45.2465 458.556 45.3447C457.456 44.4448 456.38 43.5242 455.327 42.5814C456.24 42.4851 457.148 42.4006 458.054 42.3187C458.978 43.2543 459.923 44.1705 460.889 45.0671ZM465.014 44.636C464.082 44.7238 463.146 44.8161 462.206 44.9175C461.241 44.032 460.296 43.1275 459.373 42.2036C460.437 42.1139 461.497 42.0319 462.55 41.9624C463.351 42.8707 464.174 43.7615 465.014 44.636ZM469.575 44.2589C468.493 44.335 467.409 44.4162 466.317 44.5125C465.482 43.6535 464.665 42.7803 463.869 41.8889C465.078 41.8206 466.282 41.7608 467.478 41.7172C468.16 42.5781 468.859 43.4253 469.575 44.2589ZM474.54 43.978C473.323 44.0281 472.101 44.0911 470.871 44.1692C470.159 43.3506 469.463 42.5176 468.785 41.6711C470.052 41.6334 471.311 41.6119 472.561 41.6061C473.229 42.3785 473.889 43.1691 474.54 43.978ZM479.538 43.8545C478.316 43.8668 477.085 43.8954 475.849 43.9351C475.218 43.1425 474.579 42.3668 473.933 41.6087C475.138 41.6158 476.335 41.6366 477.525 41.673C478.204 42.3824 478.876 43.1093 479.538 43.8545ZM484.378 43.8785C483.228 43.8519 482.072 43.8369 480.908 43.8402C480.275 43.1197 479.636 42.4149 478.989 41.7257C480.121 41.7725 481.245 41.8336 482.362 41.9084C483.042 42.5495 483.714 43.2062 484.378 43.8785ZM489.067 44.0703C488.003 44.0092 486.931 43.9617 485.854 43.9247C485.226 43.2758 484.591 42.6418 483.949 42.0215C484.994 42.1035 486.032 42.1997 487.062 42.3096C487.738 42.8824 488.407 43.4689 489.067 44.0703ZM493.581 44.4156C492.617 44.3246 491.649 44.2439 490.674 44.1744C490.07 43.6119 489.463 43.0612 488.849 42.5228C489.79 42.6412 490.728 42.7667 491.66 42.9052C492.306 43.3961 492.946 43.9 493.581 44.4156ZM497.869 44.8935C497.036 44.7836 496.202 44.6796 495.36 44.5892C494.805 44.1223 494.245 43.6652 493.681 43.2173C494.493 43.3525 495.298 43.5014 496.1 43.6561C496.695 44.0593 497.285 44.4715 497.869 44.8935ZM501.887 45.4969C501.243 45.387 500.592 45.2914 499.943 45.1939C499.482 44.8467 499.021 44.5053 498.554 44.1698C499.183 44.3089 499.812 44.4494 500.434 44.5996C500.921 44.8922 501.406 45.1913 501.887 45.4969ZM505.5 46.1828C505.128 46.1055 504.754 46.0294 504.38 45.9553C504.108 45.7719 503.836 45.5905 503.563 45.411C503.93 45.5131 504.294 45.6204 504.659 45.727C504.94 45.8772 505.221 46.0294 505.5 46.1828ZM558.538 82.6872C557.327 82.5168 556.111 82.3387 554.887 82.1527C554.399 81.7008 553.92 81.2398 553.444 80.7775C554.686 80.942 555.92 81.0987 557.144 81.2483C557.6 81.7353 558.073 82.208 558.538 82.6872ZM560.894 85.0136C559.754 84.8335 558.61 84.6475 557.46 84.4538C556.972 84.0338 556.493 83.6053 556.015 83.1755C557.182 83.3484 558.343 83.5136 559.498 83.6729C559.955 84.1274 560.428 84.5682 560.894 85.0136ZM563.343 87.2627C562.281 87.0774 561.215 86.8856 560.147 86.6872C559.669 86.3049 559.201 85.9141 558.731 85.5234C559.815 85.7009 560.895 85.8719 561.972 86.037C562.422 86.4519 562.884 86.8556 563.343 87.2627ZM565.882 89.4376C564.906 89.2497 563.93 89.0572 562.951 88.8583C562.493 88.5156 562.042 88.1651 561.59 87.8153C562.582 87.9941 563.572 88.1665 564.559 88.3342C564.993 88.7068 565.439 89.0709 565.882 89.4376ZM568.502 91.5325C567.625 91.3466 566.746 91.1574 565.867 90.9623C565.44 90.6652 565.023 90.3583 564.601 90.0553C565.489 90.2295 566.376 90.3986 567.261 90.5644C567.67 90.8914 568.087 91.2113 568.502 91.5325ZM571.188 93.5436C570.424 93.3668 569.661 93.1867 568.897 93.0027C568.517 92.7556 568.145 92.4994 567.769 92.2484C568.538 92.4129 569.306 92.5729 570.073 92.7296C570.442 93.0033 570.815 93.2731 571.188 93.5436ZM573.913 95.4559C573.286 95.2972 572.66 95.1379 572.033 94.9741C571.725 94.7875 571.425 94.5918 571.12 94.4019C571.745 94.5462 572.371 94.6867 572.995 94.8265C573.3 95.0378 573.606 95.2478 573.913 95.4559ZM576.645 97.2608C576.194 97.136 575.741 97.0131 575.291 96.8857C575.088 96.7699 574.887 96.6496 574.685 96.5333C575.133 96.6444 575.58 96.7517 576.029 96.8603C576.234 96.9936 576.438 97.1282 576.645 97.2608ZM579.348 98.9397L578.681 98.7407L578.54 98.6685L579.178 98.8343L579.348 98.9397ZM28.3407 115.915C33.6975 117.385 39.1468 118.764 44.6701 120.04C94.5918 131.579 150.507 134.814 197.522 122.865C235.093 113.315 273.902 98.8564 311.732 84.762C362.816 65.7299 412.109 47.3695 454.001 42.7283C455.052 43.6802 456.127 44.61 457.225 45.519C416.126 50.9384 368.377 68.7234 318.96 87.1339C281.148 101.221 242.359 115.673 204.899 125.194C158.141 137.077 102.484 133.85 52.7705 122.359C44.4349 120.433 36.2702 118.273 28.3407 115.915ZM464.98 48.651C464.37 48.7316 463.764 48.8064 463.152 48.8922C461.916 47.9911 460.701 47.0658 459.513 46.1178C460.263 46.0268 461.009 45.9436 461.755 45.861C462.806 46.8122 463.882 47.7427 464.98 48.651ZM468.644 48.1991C467.87 48.2882 467.095 48.3786 466.316 48.4761C465.216 47.5762 464.138 46.6555 463.085 45.7127C463.997 45.6165 464.904 45.5326 465.81 45.4507C466.733 46.3863 467.678 47.3025 468.644 48.1991ZM472.769 47.768C471.837 47.8558 470.901 47.9481 469.962 48.0502C468.996 47.1646 468.051 46.2596 467.129 45.3363C468.193 45.2465 469.253 45.1646 470.304 45.0957C471.106 46.0027 471.927 46.8935 472.769 47.768ZM477.329 47.3909C476.247 47.467 475.162 47.5489 474.069 47.6451C473.234 46.7869 472.419 45.9123 471.622 45.0216C472.83 44.9533 474.035 44.8935 475.231 44.8493C475.914 45.7101 476.613 46.5574 477.329 47.3909ZM482.294 47.11C481.079 47.1607 479.856 47.2232 478.626 47.3018C477.914 46.4832 477.217 45.6503 476.539 44.8038C477.807 44.7654 479.064 44.7446 480.314 44.7387C480.983 45.5105 481.643 46.3012 482.294 47.11ZM487.292 46.9865C486.07 46.9988 484.839 47.0275 483.603 47.0671C482.972 46.2745 482.334 45.4995 481.686 44.7407C482.891 44.7472 484.089 44.7686 485.279 44.8044C485.958 45.5144 486.63 46.2414 487.292 46.9865ZM492.132 47.0105C490.983 46.9839 489.826 46.9689 488.662 46.9722C488.03 46.2518 487.391 45.5469 486.744 44.8577C487.875 44.9045 488.998 44.9657 490.116 45.0404C490.796 45.6815 491.468 46.3382 492.132 47.0105ZM496.822 47.2024C495.758 47.1412 494.686 47.0938 493.609 47.0567C492.981 46.4078 492.346 45.7739 491.705 45.1536C492.75 45.2355 493.787 45.3317 494.818 45.4416C495.492 46.0144 496.161 46.6016 496.822 47.2024ZM501.334 47.547C500.37 47.4559 499.402 47.3753 498.427 47.3057C497.824 46.7433 497.216 46.1926 496.601 45.6542C497.543 45.7726 498.48 45.8974 499.412 46.0359C500.057 46.5281 500.699 47.0313 501.334 47.547ZM505.623 48.0255C504.791 47.9163 503.956 47.8116 503.114 47.7212C502.56 47.2544 502 46.7973 501.436 46.3493C502.249 46.4845 503.053 46.6334 503.855 46.7888C504.45 47.1913 505.038 47.6042 505.623 48.0255ZM509.642 48.6289C508.998 48.519 508.348 48.4234 507.698 48.3259C507.237 47.978 506.775 47.6373 506.309 47.3012C506.94 47.4403 507.568 47.5821 508.192 47.7323C508.678 48.0249 509.162 48.324 509.642 48.6289ZM513.252 49.3142C512.879 49.2368 512.507 49.1608 512.133 49.0873C511.86 48.9039 511.588 48.7219 511.313 48.5424C511.681 48.6445 512.045 48.7524 512.41 48.8591C512.692 49.0093 512.972 49.1608 513.252 49.3142ZM564.037 83.4174C562.762 83.2581 561.477 83.0916 560.184 82.9154C559.698 82.4304 559.224 81.9355 558.751 81.4394C560.064 81.5935 561.365 81.7385 562.654 81.8764C563.104 82.3985 563.575 82.9031 564.037 83.4174ZM566.293 85.8192C565.082 85.6489 563.865 85.4707 562.641 85.2841C562.151 84.8296 561.67 84.3667 561.191 83.9018C562.434 84.0669 563.667 84.223 564.892 84.3725C565.35 84.8628 565.825 85.3381 566.293 85.8192ZM568.647 88.1443C567.506 87.9642 566.362 87.7783 565.213 87.5845C564.726 87.1645 564.247 86.7373 563.77 86.3082C564.937 86.4811 566.099 86.6463 567.253 86.8056C567.711 87.2594 568.181 87.6996 568.647 88.1443ZM571.097 90.3947C570.035 90.2094 568.97 90.0182 567.902 89.8199C567.424 89.4376 566.956 89.0462 566.486 88.6554C567.571 88.8329 568.65 89.0039 569.727 89.1691C570.176 89.5839 570.638 89.9883 571.097 90.3947ZM573.636 92.5696C572.661 92.3817 571.684 92.1893 570.705 91.9896C570.246 91.647 569.795 91.2959 569.344 90.9467C570.335 91.1255 571.325 91.2972 572.313 91.4649C572.749 91.8388 573.194 92.2036 573.636 92.5696ZM576.257 94.6646C575.379 94.4793 574.501 94.2901 573.622 94.095C573.194 93.7972 572.775 93.4897 572.352 93.1867C573.241 93.3616 574.128 93.5306 575.013 93.6958C575.423 94.0228 575.84 94.3434 576.257 94.6646ZM578.941 96.675C578.178 96.4982 577.414 96.318 576.65 96.134C576.271 95.887 575.9 95.6314 575.524 95.3811C576.293 95.545 577.061 95.7049 577.828 95.8623C578.196 96.1353 578.569 96.4045 578.941 96.675ZM581.667 98.5885C581.04 98.4299 580.414 98.2706 579.787 98.1068C579.479 97.9201 579.18 97.7251 578.874 97.5359C579.5 97.6802 580.125 97.8207 580.75 97.9605C581.054 98.1711 581.361 98.3798 581.667 98.5885ZM584.399 100.393C583.948 100.269 583.497 100.145 583.046 100.018C582.842 99.9026 582.642 99.7823 582.439 99.6659C582.887 99.7771 583.334 99.8851 583.784 99.993C583.988 100.126 584.192 100.26 584.399 100.393ZM587.104 102.072L586.437 101.873L586.298 101.802L586.935 101.968L587.104 102.072ZM36.0782 119.042C41.4403 120.515 46.8958 121.894 52.4243 123.172C102.346 134.711 158.261 137.945 205.276 125.997C242.847 116.447 281.656 101.988 319.486 87.894C369.117 69.4035 417.059 51.5451 458.165 46.2882C459.352 47.2466 460.564 48.1816 461.799 49.0925C421.426 54.9846 374.862 72.3281 326.714 90.266C288.903 104.353 250.113 118.805 212.653 128.326C165.895 140.209 110.239 136.982 60.5247 125.491C52.1839 123.563 44.013 121.402 36.0782 119.042ZM-24.8126 94.2979L-24.7254 94.3492L-25.4749 94.1282L-25.5155 94.1061L-24.8126 94.2979ZM469.556 52.2245L468.28 52.4137C466.896 51.5178 465.536 50.5964 464.202 49.6484C464.776 49.5717 465.35 49.4943 465.921 49.4208C467.108 50.3792 468.32 51.3136 469.556 52.2245ZM472.735 51.783C472.128 51.863 471.525 51.9384 470.915 52.023C469.677 51.1218 468.462 50.1972 467.273 49.2485C468.022 49.1582 468.766 49.0743 469.511 48.9924C470.561 49.9443 471.637 50.8747 472.735 51.783ZM476.397 51.3311C475.623 51.4196 474.849 51.5106 474.069 51.6081C472.969 50.7082 471.892 49.7876 470.839 48.8448C471.751 48.7492 472.658 48.664 473.562 48.5821C474.486 49.5184 475.431 50.4345 476.397 51.3311ZM480.523 50.9001C479.589 50.9885 478.655 51.0808 477.714 51.1822C476.749 50.2967 475.804 49.3922 474.882 48.4683C475.945 48.3786 477.006 48.2966 478.058 48.2271C478.861 49.1348 479.682 50.0255 480.523 50.9001ZM485.083 50.5229C484.001 50.599 482.917 50.6809 481.825 50.7772C480.99 49.9183 480.174 49.0444 479.377 48.1536C480.585 48.0853 481.79 48.0255 482.986 47.9813C483.668 48.8422 484.367 49.6894 485.083 50.5229ZM490.048 50.2421C488.832 50.2921 487.61 50.3552 486.38 50.4339C485.667 49.6146 484.972 48.7823 484.293 47.9358C485.56 47.8981 486.818 47.8766 488.068 47.8714C488.738 48.6426 489.398 49.4332 490.048 50.2421ZM495.047 50.1185C493.825 50.1309 492.594 50.1595 491.357 50.1991C490.727 49.4065 490.088 48.6315 489.441 47.8727C490.646 47.8792 491.844 47.9007 493.033 47.9364C493.712 48.6465 494.383 49.374 495.047 50.1185ZM499.887 50.1426C498.738 50.1159 497.582 50.101 496.416 50.1042C495.784 49.3838 495.144 48.679 494.498 47.9897C495.629 48.0366 496.754 48.0983 497.871 48.1731C498.55 48.8142 499.222 49.4703 499.887 50.1426ZM504.576 50.3344C503.513 50.2733 502.441 50.2264 501.364 50.1894C500.735 49.5405 500.101 48.9059 499.459 48.2856C500.504 48.3675 501.54 48.4637 502.571 48.5736C503.246 49.1465 503.914 49.7329 504.576 50.3344ZM509.089 50.6796C508.125 50.5886 507.155 50.508 506.181 50.4384C505.578 49.876 504.969 49.3253 504.355 48.7869C505.297 48.9052 506.235 49.0301 507.167 49.1686C507.813 49.6601 508.454 50.164 509.089 50.6796ZM513.379 51.1575C512.547 51.0477 511.712 50.9436 510.87 50.8532C510.316 50.3864 509.755 49.9293 509.192 49.4813C510.005 49.6166 510.81 49.7661 511.612 49.9209C512.206 50.324 512.795 50.7356 513.379 51.1575ZM517.395 51.7603C516.751 51.651 516.1 51.5555 515.451 51.4573C514.991 51.1101 514.529 50.7687 514.063 50.4326C514.693 50.5717 515.321 50.7128 515.945 50.863C516.431 51.1569 516.915 51.4553 517.395 51.7603ZM521.006 52.4462C520.635 52.3689 520.261 52.2934 519.888 52.22C519.616 52.0366 519.343 51.8552 519.069 51.6751C519.436 51.7772 519.799 51.8845 520.163 51.9905C520.445 52.1406 520.726 52.2928 521.006 52.4462ZM569.637 84.0715C568.302 83.9258 566.954 83.7724 565.595 83.6085C565.117 83.0923 564.651 82.5649 564.188 82.0363C565.57 82.1781 566.937 82.3107 568.289 82.4343C568.73 82.9876 569.184 83.5285 569.637 84.0715ZM571.79 86.5487C570.515 86.3894 569.231 86.223 567.938 86.0474C567.451 85.5598 566.974 85.063 566.5 84.565C567.812 84.7191 569.114 84.8641 570.403 85.0019C570.857 85.5253 571.325 86.0351 571.79 86.5487ZM574.047 88.9506C572.836 88.7796 571.619 88.6014 570.395 88.4155C569.905 87.9616 569.425 87.4993 568.946 87.0351C570.189 87.2002 571.423 87.3563 572.648 87.5052C573.106 87.9935 573.577 88.4707 574.047 88.9506ZM576.401 91.2764C575.26 91.0963 574.116 90.9103 572.967 90.7165C572.48 90.2972 572.003 89.8693 571.525 89.4408C572.692 89.6138 573.853 89.779 575.008 89.9383C575.465 90.3908 575.934 90.8323 576.401 91.2764ZM578.852 93.5274C577.79 93.3421 576.725 93.1509 575.657 92.9526C575.179 92.5696 574.71 92.1782 574.241 91.7881C575.325 91.9656 576.405 92.1366 577.481 92.3017C577.931 92.7159 578.393 93.121 578.852 93.5274ZM581.391 95.7017C580.416 95.5137 579.438 95.3219 578.459 95.1223C578.001 94.7797 577.55 94.4273 577.097 94.0781C578.089 94.2569 579.08 94.4292 580.066 94.597C580.503 94.9702 580.948 95.3349 581.391 95.7017ZM584.01 97.796C583.133 97.6106 582.255 97.4214 581.376 97.2264C580.948 96.9286 580.529 96.6223 580.107 96.3194C580.996 96.4943 581.883 96.6633 582.768 96.8285C583.179 97.1549 583.594 97.4754 584.01 97.796ZM586.695 99.807C585.932 99.6302 585.168 99.4501 584.405 99.2654C584.025 99.019 583.655 98.7635 583.28 98.5131C584.048 98.6776 584.816 98.8376 585.582 98.9943C585.951 99.268 586.323 99.5372 586.695 99.807ZM589.421 101.721C588.794 101.562 588.168 101.403 587.541 101.239C587.234 101.052 586.934 100.857 586.629 100.668C587.254 100.812 587.879 100.953 588.505 101.092C588.809 101.303 589.115 101.512 589.421 101.721ZM592.154 103.525C591.703 103.4 591.251 103.278 590.801 103.15C590.596 103.035 590.396 102.915 590.193 102.798C590.641 102.909 591.09 103.016 591.538 103.125C591.743 103.258 591.948 103.393 592.154 103.525ZM594.858 105.204L594.191 105.005L594.053 104.935L594.689 105.1L594.858 105.204ZM43.828 122.172C49.191 123.645 54.6482 125.026 60.1786 126.304C110.1 137.843 166.015 141.078 213.03 129.129C250.602 119.579 289.411 105.12 327.241 91.026C375.627 72.9992 422.41 55.5685 462.817 49.835C464.145 50.7908 465.5 51.7206 466.878 52.6257C427.13 58.8768 381.554 75.8555 334.467 93.3986C296.655 107.485 257.866 121.937 220.406 131.458C173.648 143.342 117.992 140.114 68.2781 128.623C59.9364 126.695 51.7637 124.533 43.828 122.172ZM-17.0566 97.4299L-16.9694 97.4819L-17.7198 97.2608L-17.7603 97.2387L-17.0566 97.4299ZM-20.2335 95.5124L-19.853 95.7485L-21.0236 95.4182L-21.3908 95.2107L-20.2335 95.5124ZM-23.3338 93.5579L-22.7067 93.9578L-24.2586 93.5404L-24.8769 93.1743L-23.3338 93.5579ZM-14.9524 97.0892L-16.5044 96.6718L-14.9524 97.0892ZM-16.5044 96.6718L-17.1227 96.3057L-15.5796 96.6893M474.638 55.7571C474.41 55.7928 474.182 55.8318 473.954 55.8689C472.416 54.9872 470.903 54.0776 469.416 53.1394C469.803 53.0815 470.191 53.021 470.575 52.9664C471.904 53.9229 473.258 54.8526 474.638 55.7571ZM477.311 55.3566L476.046 55.5432C474.66 54.6478 473.3 53.7258 471.964 52.7785C472.535 52.7024 473.107 52.6257 473.675 52.5522C474.863 53.5113 476.075 54.4456 477.311 55.3566ZM480.488 54.9151C479.881 54.995 479.278 55.0705 478.669 55.1556C477.431 54.2545 476.217 53.3292 475.028 52.3812C475.776 52.2908 476.52 52.207 477.264 52.125C478.316 53.0763 479.39 54.0067 480.488 54.9151ZM484.152 54.4632C483.378 54.5522 482.603 54.6426 481.824 54.7402C480.724 53.8403 479.646 52.9196 478.592 51.9768C479.506 51.8812 480.413 51.7967 481.317 51.7148C482.24 52.6504 483.185 53.5665 484.152 54.4632ZM488.276 54.0321C487.343 54.1199 486.408 54.2128 485.468 54.3143C484.503 53.4287 483.559 52.5236 482.637 51.6003C483.701 51.5106 484.76 51.4287 485.814 51.3598C486.613 52.2668 487.436 53.1576 488.276 54.0321ZM492.838 53.655C491.756 53.731 490.67 53.813 489.577 53.9092C488.743 53.0509 487.927 52.1764 487.13 51.2856C488.339 51.2167 489.544 51.1569 490.74 51.1133C491.421 51.9742 492.122 52.8214 492.838 53.655ZM497.802 53.3741C496.587 53.4241 495.365 53.4872 494.134 53.5652C493.422 52.7466 492.726 51.9137 492.048 51.0672C493.314 51.0294 494.573 51.008 495.823 51.0021C496.492 51.7746 497.152 52.5652 497.802 53.3741ZM502.801 53.2505C501.579 53.2629 500.348 53.2915 499.111 53.3312C498.481 52.5386 497.842 51.7629 497.195 51.0047C498.4 51.0119 499.597 51.0327 500.787 51.0691C501.467 51.7785 502.139 52.5054 502.801 53.2505ZM507.641 53.2746C506.491 53.2479 505.335 53.233 504.17 53.2362C503.539 52.5158 502.899 51.811 502.252 51.1218C503.384 51.1686 504.508 51.2297 505.625 51.3045C506.305 51.9456 506.977 52.6023 507.641 53.2746ZM512.331 53.4664C511.267 53.4053 510.195 53.3578 509.118 53.3208C508.49 52.6719 507.855 52.0379 507.213 51.4176C508.258 51.4995 509.295 51.5958 510.325 51.7057C511.001 52.2785 511.669 52.865 512.331 53.4664ZM516.844 53.8117C515.879 53.7206 514.911 53.64 513.936 53.5704C513.334 53.008 512.725 52.4573 512.111 51.9189C513.052 52.0373 513.991 52.1628 514.922 52.3012C515.568 52.7921 516.21 53.2961 516.844 53.8117ZM521.133 54.2896C520.301 54.1797 519.466 54.0756 518.624 53.9853C518.069 53.5184 517.509 53.0613 516.944 52.6133C517.757 52.7486 518.561 52.8975 519.364 53.0522C519.958 53.4554 520.548 53.8676 521.133 54.2896ZM525.149 54.893C524.506 54.7831 523.855 54.6875 523.206 54.59C522.745 54.2428 522.283 53.9014 521.817 53.5659C522.446 53.705 523.075 53.8455 523.698 53.9957C524.185 54.2883 524.669 54.5874 525.149 54.893ZM528.763 55.5789C528.391 55.5015 528.017 55.4255 527.642 55.3513C527.371 55.168 527.098 54.9866 526.825 54.8071C527.192 54.9092 527.556 55.0165 527.921 55.1231C528.203 55.2733 528.484 55.4255 528.763 55.5789ZM575.29 84.6462C573.916 84.5169 572.527 84.379 571.123 84.2314C570.655 83.6852 570.205 83.1254 569.753 82.5663C571.142 82.6885 572.512 82.801 573.863 82.9057C574.344 83.4733 574.816 84.0624 575.29 84.6462ZM577.391 87.2035C576.056 87.0579 574.708 86.9044 573.349 86.7406C572.869 86.2223 572.403 85.6924 571.937 85.1632C573.319 85.3049 574.687 85.4375 576.039 85.5617C576.481 86.1157 576.937 86.6593 577.391 87.2035ZM579.545 89.6808C578.269 89.5215 576.985 89.355 575.692 89.1788C575.205 88.6925 574.729 88.1957 574.255 87.6983C575.568 87.8524 576.869 87.9974 578.159 88.1352C578.612 88.6573 579.08 89.1678 579.545 89.6808ZM581.8 92.082C580.589 91.9116 579.373 91.7335 578.149 91.5469C577.659 91.093 577.179 90.6301 576.701 90.1665C577.943 90.3316 579.177 90.4877 580.402 90.6372C580.86 91.1268 581.332 91.6028 581.8 92.082ZM584.156 94.409C583.015 94.2296 581.872 94.043 580.722 93.8492C580.234 93.4292 579.757 93.0014 579.279 92.5729C580.446 92.7458 581.608 92.911 582.763 93.0703C583.219 93.5228 583.689 93.965 584.156 94.409ZM586.607 96.6594C585.544 96.4741 584.479 96.2829 583.411 96.0846C582.933 95.7016 582.463 95.3096 581.994 94.9188C583.078 95.097 584.158 95.2673 585.234 95.4325C585.685 95.8473 586.147 96.2524 586.607 96.6594ZM589.145 98.833C588.169 98.6451 587.192 98.4527 586.214 98.2537C585.755 97.911 585.306 97.5606 584.853 97.2108C585.846 97.3896 586.835 97.5619 587.822 97.7296C588.257 98.1022 588.701 98.467 589.145 98.833ZM591.764 100.929C590.887 100.743 590.009 100.553 589.13 100.358C588.703 100.061 588.284 99.7544 587.862 99.4514C588.751 99.6256 589.637 99.7947 590.523 99.9605C590.933 100.287 591.349 100.607 591.764 100.929ZM594.451 102.938C593.687 102.762 592.923 102.581 592.159 102.397C591.779 102.151 591.41 101.895 591.034 101.645C591.802 101.809 592.569 101.969 593.336 102.126C593.706 102.4 594.078 102.669 594.451 102.938ZM597.177 104.853C596.549 104.695 595.922 104.535 595.295 104.371C594.988 104.184 594.688 103.988 594.384 103.8C595.008 103.944 595.634 104.085 596.259 104.225C596.564 104.435 596.87 104.645 597.177 104.853ZM599.909 106.657C599.457 106.532 599.006 106.41 598.555 106.282C598.352 106.167 598.151 106.048 597.948 105.931C598.396 106.042 598.845 106.149 599.293 106.258C599.498 106.391 599.702 106.525 599.909 106.657ZM602.613 108.336L601.944 108.137L601.809 108.067L602.445 108.233L602.613 108.336ZM-9.30146 100.563L-9.21603 100.613L-9.96468 100.392L-10.0052 100.371L-9.30146 100.563ZM-12.4775 98.6451L-12.0979 98.8798L-13.2675 98.5502L-13.6348 98.3428L-12.4775 98.6451ZM-18.5927 94.6977L-17.7876 95.2374C-18.4165 95.0781 -19.0436 94.9169 -19.6689 94.7556L-20.4819 94.2504C-19.853 94.4012 -19.2233 94.5501 -18.5927 94.6977ZM-21.5282 92.6626C-21.2147 92.885 -20.9011 93.1086 -20.5832 93.3304C-21.3098 93.1561 -22.0356 92.9786 -22.7587 92.8004C-23.0837 92.5904 -23.406 92.3798 -23.7266 92.1691C-22.9956 92.3355 -22.2619 92.5 -21.5282 92.6626ZM480.272 59.2363L480.221 59.2448C478.519 58.3832 476.84 57.4912 475.188 56.5679L475.758 56.4834C477.237 57.4287 478.742 58.3468 480.272 59.2363ZM482.391 58.8891C482.169 58.9242 481.944 58.9632 481.721 58.999C480.184 58.118 478.67 57.2083 477.183 56.2701C477.565 56.2129 477.949 56.153 478.33 56.0991C479.658 57.0549 481.012 57.9847 482.391 58.8891ZM485.065 58.4886L483.8 58.6752C482.416 57.7799 481.055 56.8579 479.72 55.9105C480.291 55.8344 480.862 55.7571 481.431 55.6842C482.616 56.6433 483.828 57.5776 485.065 58.4886ZM488.243 58.0477C487.636 58.1277 487.032 58.2031 486.421 58.2883C485.184 57.3871 483.968 56.4619 482.78 55.5139C483.529 55.4229 484.274 55.3396 485.018 55.2571C486.07 56.209 487.144 57.1388 488.243 58.0477ZM491.903 57.5958C491.129 57.6843 490.355 57.7747 489.576 57.8728C488.476 56.973 487.399 56.0516 486.346 55.1095C487.258 55.0139 488.165 54.9294 489.07 54.8474C489.993 55.7831 490.937 56.6986 491.903 57.5958ZM496.03 57.1641C495.097 57.2519 494.161 57.3442 493.222 57.4463C492.257 56.5607 491.311 55.6556 490.389 54.7324C491.453 54.6426 492.513 54.5607 493.566 54.4911C494.367 55.3995 495.189 56.2896 496.03 57.1641ZM500.592 56.7864C499.51 56.8624 498.425 56.9443 497.332 57.0406C496.498 56.1823 495.682 55.3078 494.885 54.417C496.095 54.3487 497.299 54.2889 498.494 54.2447C499.177 55.1062 499.876 55.9534 500.592 56.7864ZM505.557 56.5061C504.341 56.5568 503.119 56.6192 501.888 56.6979C501.177 55.8793 500.48 55.0464 499.802 54.1998C501.068 54.1615 502.327 54.1407 503.577 54.1348C504.246 54.9066 504.906 55.6973 505.557 56.5061ZM510.556 56.3826C509.333 56.3949 508.103 56.4235 506.866 56.4632C506.236 55.6706 505.597 54.8956 504.951 54.1368C506.156 54.1433 507.354 54.1647 508.543 54.2005C509.222 54.9105 509.893 55.6381 510.556 56.3826ZM515.396 56.4066C514.246 56.38 513.09 56.365 511.926 56.3683C511.293 55.6478 510.655 54.943 510.007 54.2538C511.138 54.3006 512.262 54.3617 513.38 54.4372C514.059 55.0776 514.731 55.7343 515.396 56.4066ZM520.086 56.5984C519.022 56.5373 517.949 56.4899 516.873 56.4528C516.245 55.8039 515.61 55.1699 514.969 54.5496C516.014 54.6316 517.052 54.7278 518.081 54.8377C518.756 55.4105 519.424 55.9977 520.086 56.5984ZM524.597 56.943C523.634 56.852 522.666 56.7714 521.691 56.7018C521.087 56.1394 520.479 55.5887 519.865 55.0503C520.806 55.1686 521.743 55.2935 522.674 55.432C523.321 55.9242 523.963 56.4274 524.597 56.943ZM528.886 57.4216C528.053 57.3124 527.218 57.2077 526.377 57.1173C525.822 56.6505 525.263 56.1934 524.698 55.7454C525.51 55.8813 526.316 56.0302 527.118 56.1849C527.712 56.5874 528.301 57.0003 528.886 57.4216ZM532.905 58.025C532.262 57.9157 531.612 57.8195 530.962 57.722C530.501 57.3741 530.039 57.0334 529.573 56.6973C530.202 56.8364 530.831 56.9782 531.456 57.1284C531.942 57.4209 532.425 57.72 532.905 58.025ZM536.516 58.7109C536.143 58.6336 535.771 58.5575 535.396 58.484C535.124 58.3007 534.852 58.1186 534.578 57.9392C534.945 58.0412 535.309 58.1492 535.675 58.2558C535.955 58.4054 536.236 58.5569 536.516 58.7109ZM580.815 85.1241C579.479 85.0182 578.123 84.9031 576.75 84.7795C576.273 84.1787 575.788 83.5949 575.302 83.0136C576.611 83.1105 577.899 83.1989 579.168 83.2795C579.726 83.8797 580.269 84.5039 580.815 85.1241ZM583.044 87.7776C581.671 87.6482 580.281 87.5104 578.877 87.3628C578.407 86.816 577.957 86.2535 577.503 85.6937C578.892 85.816 580.262 85.9291 581.614 86.0338C582.097 86.6014 582.57 87.1905 583.044 87.7776ZM585.145 90.3349C583.81 90.1892 582.463 90.0358 581.104 89.8719C580.624 89.3544 580.158 88.8251 579.693 88.2958C581.075 88.4376 582.443 88.5702 583.795 88.6938C584.236 89.2484 584.691 89.7907 585.145 90.3349ZM587.299 92.8121C586.023 92.6528 584.738 92.4864 583.445 92.3102C582.959 91.8238 582.484 91.3271 582.009 90.8303C583.321 90.9844 584.623 91.1294 585.913 91.2673C586.366 91.7894 586.835 92.2991 587.299 92.8121ZM589.555 95.2146C588.344 95.0443 587.127 94.8661 585.904 94.6802C585.414 94.2257 584.934 93.7627 584.455 93.2991C585.698 93.4643 586.931 93.6203 588.157 93.7699C588.615 94.2575 589.086 94.7348 589.555 95.2146ZM591.911 97.5411C590.77 97.3616 589.625 97.175 588.476 96.9812C587.988 96.5619 587.511 96.1334 587.033 95.7042C588.2 95.8772 589.361 96.043 590.516 96.2017C590.974 96.6542 591.443 97.097 591.911 97.5411ZM594.36 99.7908C593.298 99.6055 592.232 99.4143 591.164 99.216C590.687 98.8337 590.219 98.4416 589.748 98.0515C590.833 98.229 591.912 98.4 592.989 98.5651C593.44 98.9793 593.9 99.3844 594.36 99.7908ZM596.899 101.965C595.923 101.777 594.947 101.585 593.968 101.386C593.51 101.043 593.06 100.692 592.608 100.343C593.6 100.522 594.59 100.695 595.577 100.862C596.012 101.235 596.455 101.599 596.899 101.965ZM599.519 104.061C598.641 103.875 597.763 103.686 596.884 103.49C596.457 103.193 596.039 102.886 595.617 102.584C596.505 102.758 597.391 102.927 598.278 103.093C598.687 103.419 599.103 103.739 599.519 104.061ZM602.207 106.072C601.443 105.895 600.679 105.714 599.915 105.53C599.535 105.284 599.165 105.028 598.79 104.777C599.558 104.942 600.326 105.102 601.092 105.258C601.461 105.533 601.833 105.803 602.207 106.072ZM604.932 107.985C604.305 107.827 603.677 107.667 603.05 107.503C602.743 107.316 602.444 107.121 602.14 106.932C602.765 107.076 603.39 107.217 604.015 107.357C604.32 107.568 604.624 107.777 604.932 107.985ZM607.663 109.789C607.211 109.665 606.76 109.542 606.309 109.414C606.106 109.299 605.906 109.18 605.703 109.063C606.152 109.175 606.601 109.282 607.049 109.39C607.253 109.523 607.457 109.658 607.663 109.789ZM610.366 111.468L609.699 111.269L609.561 111.198L610.197 111.364L610.366 111.468ZM-1.54897 103.694L-1.46177 103.745L-2.2113 103.524L-2.25182 103.502L-1.54897 103.694ZM-4.72324 101.777L-4.34451 102.012L-5.51417 101.682L-5.87969 101.476L-4.72324 101.777ZM-7.82442 99.822C-7.61832 99.9553 -7.40693 100.087 -7.19995 100.22L-8.75098 99.8031L-9.36752 99.4384L-7.82442 99.822ZM-10.8366 97.8304L-10.0325 98.3694C-10.6605 98.2101 -11.2885 98.0495 -11.9147 97.8876L-12.7259 97.3831C-12.097 97.5339 -11.4673 97.6828 -10.8366 97.8304ZM-13.774 95.7946C-13.4613 96.017 -13.1478 96.24 -12.8307 96.4617C-13.5564 96.2875 -14.2822 96.1106 -15.0062 95.9325C-15.3303 95.7225 -15.6527 95.5118 -15.9733 95.3011C-15.2413 95.4676 -14.5077 95.6321 -13.774 95.7946ZM-16.6206 93.7211C-16.2718 93.9819 -15.9222 94.2419 -15.5681 94.502C-16.0525 94.3921 -16.5361 94.2829 -17.0196 94.1711L-18.0166 93.9389C-18.3813 93.6919 -18.7406 93.4428 -19.1 93.1945C-18.2747 93.3726 -17.4485 93.5482 -16.6206 93.7211ZM-19.3801 91.6015C-19.004 91.8986 -18.6252 92.1958 -18.2403 92.4916C-19.1414 92.2991 -20.0415 92.1034 -20.939 91.9051C-21.3362 91.6229 -21.7273 91.3388 -22.1166 91.0553C-21.2059 91.2406 -20.2934 91.422 -19.3801 91.6015ZM-22.0426 89.4363C-21.6471 89.7672 -21.2482 90.0975 -20.843 90.4278C-21.8224 90.2315 -22.8001 90.0319 -23.776 89.8284C-24.1961 89.5124 -24.6127 89.1957 -25.024 88.8791C-24.0323 89.0689 -23.0379 89.2542 -22.0426 89.4363ZM488.026 62.3683L487.991 62.3742C486.288 61.5127 484.61 60.6212 482.956 59.698L483.511 59.6154C484.991 60.5614 486.496 61.4789 488.026 62.3683ZM490.146 62.0211C489.924 62.0562 489.699 62.0946 489.476 62.131C487.938 61.2493 486.424 60.3404 484.937 59.4021C485.319 59.3449 485.703 59.2851 486.083 59.2311C487.411 60.1869 488.767 61.1167 490.146 62.0211ZM492.819 61.6206L491.552 61.8079C490.167 60.9125 488.806 59.9905 487.472 59.0432C488.044 58.9665 488.615 58.8898 489.184 58.8169C490.371 59.7753 491.583 60.7097 492.819 61.6206ZM495.992 61.1804C495.386 61.2604 494.782 61.3358 494.174 61.421C492.937 60.5198 491.722 59.5946 490.533 58.6459C491.28 58.5549 492.025 58.4717 492.768 58.3897C493.819 59.3416 494.894 60.2714 495.992 61.1804ZM499.657 60.7279C498.882 60.817 498.107 60.9073 497.329 61.0049C496.229 60.105 495.152 59.1836 494.099 58.2415C495.011 58.1459 495.918 58.0614 496.823 57.9795C497.746 58.9151 498.69 59.8306 499.657 60.7279ZM503.785 60.2961C502.852 60.3839 501.917 60.4762 500.976 60.5783C500.011 59.6928 499.066 58.7877 498.144 57.8644C499.208 57.7747 500.268 57.6927 501.32 57.6232C502.122 58.5308 502.944 59.4223 503.785 60.2961ZM508.346 59.919C507.265 59.9951 506.179 60.077 505.087 60.1733C504.252 59.315 503.437 58.4398 502.64 57.549C503.848 57.4808 505.052 57.4209 506.248 57.3774C506.931 58.2383 507.63 59.0861 508.346 59.919ZM513.312 59.6381C512.096 59.6882 510.874 59.7513 509.643 59.8299C508.932 59.0113 508.235 58.1784 507.557 57.3319C508.824 57.2942 510.082 57.2727 511.332 57.2668C512 58.0386 512.661 58.8293 513.312 59.6381ZM518.309 59.5146C517.087 59.527 515.856 59.5556 514.62 59.5952C513.989 58.8026 513.351 58.0276 512.703 57.2688C513.908 57.2753 515.106 57.2968 516.295 57.3325C516.976 58.0425 517.646 58.7701 518.309 59.5146ZM523.15 59.5387C522 59.5126 520.844 59.497 519.679 59.5003C519.047 58.7799 518.408 58.0751 517.761 57.3858C518.892 57.4326 520.016 57.4944 521.134 57.5692C521.814 58.2103 522.486 58.8663 523.15 59.5387ZM527.839 59.7305C526.775 59.6693 525.703 59.6225 524.627 59.5855C523.999 58.9366 523.364 58.302 522.722 57.6817C523.767 57.7636 524.803 57.8598 525.834 57.9697C526.509 58.5425 527.178 59.129 527.839 59.7305ZM532.351 60.0757C531.388 59.9847 530.418 59.9041 529.444 59.8345C528.842 59.2721 528.233 58.7214 527.618 58.183C528.56 58.3013 529.498 58.4262 530.43 58.5647C531.076 59.0562 531.717 59.5601 532.351 60.0757ZM536.643 60.5536C535.81 60.4437 534.976 60.3397 534.134 60.2493C533.579 59.7825 533.019 59.3254 532.454 58.8774C533.267 59.0126 534.072 59.1622 534.875 59.3169C535.468 59.7201 536.058 60.1316 536.643 60.5536ZM540.659 61.1564C540.015 61.0471 539.365 60.9515 538.715 60.8534C538.254 60.5062 537.793 60.1648 537.327 59.8286C537.957 59.9678 538.585 60.1089 539.208 60.2591C539.693 60.553 540.178 60.8514 540.659 61.1564ZM544.266 61.8417C543.896 61.765 543.523 61.6895 543.15 61.6154C542.878 61.432 542.605 61.2506 542.332 61.0705C542.698 61.172 543.06 61.2793 543.424 61.3852C543.705 61.5361 543.986 61.6882 544.266 61.8417ZM586.05 85.5058C584.818 85.4239 583.569 85.3361 582.3 85.2399C581.754 84.6033 581.2 83.983 580.642 83.3719C581.826 83.4434 582.99 83.509 584.135 83.5682C584.781 84.1996 585.417 84.8491 586.05 85.5058ZM588.57 88.2562C587.233 88.1502 585.877 88.0351 584.504 87.9116C584.027 87.3095 583.541 86.7243 583.054 86.1424C584.362 86.2393 585.651 86.327 586.919 86.4083C587.477 87.0084 588.023 87.6333 588.57 88.2562ZM590.797 90.909C589.424 90.7796 588.034 90.6418 586.63 90.4942C586.161 89.948 585.711 89.3862 585.257 88.8258C586.646 88.948 588.017 89.0611 589.368 89.1658C589.851 89.7334 590.324 90.3225 590.797 90.909ZM592.899 93.4663C591.563 93.3206 590.216 93.1672 588.857 93.0033C588.378 92.4857 587.913 91.9571 587.447 91.4285C588.829 91.5703 590.197 91.7029 591.549 91.8271C591.99 92.3798 592.446 92.9233 592.899 93.4663ZM595.053 95.9448C593.778 95.7855 592.494 95.6191 591.201 95.4429C590.714 94.9559 590.237 94.4598 589.763 93.9624C591.076 94.1165 592.377 94.2615 593.668 94.3993C594.119 94.9221 594.588 95.4318 595.053 95.9448ZM597.31 98.3467C596.099 98.1763 594.881 97.9982 593.658 97.8116C593.168 97.3571 592.688 96.8941 592.209 96.4305C593.452 96.5957 594.685 96.7517 595.91 96.9013C596.369 97.3902 596.841 97.8675 597.31 98.3467ZM599.664 100.672C598.523 100.492 597.379 100.306 596.23 100.112C595.743 99.6926 595.265 99.2648 594.787 98.8363C595.954 99.0092 597.116 99.175 598.271 99.3337C598.728 99.7869 599.197 100.228 599.664 100.672ZM602.114 102.923C601.052 102.737 599.987 102.546 598.919 102.348C598.441 101.966 597.973 101.574 597.503 101.184C598.588 101.362 599.667 101.533 600.744 101.698C601.194 102.111 601.654 102.516 602.114 102.923ZM604.653 105.097C603.678 104.909 602.701 104.717 601.722 104.518C601.263 104.175 600.814 103.825 600.362 103.475C601.354 103.654 602.344 103.827 603.331 103.994C603.766 104.366 604.21 104.731 604.653 105.097ZM607.275 107.194C606.397 107.008 605.519 106.819 604.64 106.624C604.213 106.326 603.795 106.02 603.372 105.716C604.261 105.89 605.148 106.059 606.033 106.225C606.442 106.552 606.859 106.873 607.275 107.194ZM609.961 109.204C609.197 109.028 608.433 108.847 607.669 108.663C607.29 108.416 606.92 108.161 606.544 107.911C607.312 108.075 608.081 108.235 608.848 108.392C609.216 108.665 609.588 108.935 609.961 109.204ZM612.686 111.117C612.059 110.959 611.432 110.799 610.805 110.635C610.498 110.449 610.201 110.254 609.896 110.065C610.521 110.21 611.146 110.35 611.771 110.49C612.075 110.7 612.379 110.909 612.686 111.117ZM615.415 112.92C614.964 112.795 614.513 112.673 614.062 112.546C613.859 112.431 613.659 112.312 613.458 112.195C613.906 112.307 614.354 112.414 614.802 112.522C615.007 112.654 615.21 112.789 615.415 112.92ZM618.121 114.6L617.453 114.401L617.315 114.331L617.953 114.496L618.121 114.6ZM583.187 82.6618C582.078 82.6014 580.95 82.5357 579.804 82.4635C574.872 77.2047 569.504 72.8438 563.737 69.2911C570.764 72.6565 577.265 77.072 583.187 82.6618ZM625.709 117.629L625.876 117.733L625.207 117.534L625.072 117.463L625.709 117.629ZM622.556 115.654C622.761 115.786 622.964 115.921 623.171 116.053C622.72 115.928 622.267 115.805 621.816 115.678C621.613 115.563 621.414 115.443 621.21 115.326C621.659 115.438 622.108 115.545 622.556 115.654ZM619.524 113.621C619.827 113.831 620.132 114.041 620.438 114.248C619.811 114.089 619.184 113.93 618.558 113.766C618.252 113.58 617.953 113.385 617.649 113.197C618.274 113.341 618.899 113.481 619.524 113.621ZM616.603 111.524C616.971 111.797 617.343 112.067 617.715 112.336C616.952 112.16 616.187 111.979 615.423 111.795C615.045 111.548 614.675 111.294 614.3 111.043C615.068 111.207 615.836 111.367 616.603 111.524ZM613.789 109.358C614.199 109.684 614.614 110.005 615.029 110.325C614.152 110.14 613.273 109.951 612.394 109.755C611.967 109.458 611.549 109.151 611.127 108.849C612.016 109.024 612.904 109.193 613.789 109.358ZM611.085 107.126C611.522 107.499 611.966 107.864 612.409 108.23C611.434 108.043 610.457 107.85 609.477 107.651C609.018 107.308 608.568 106.957 608.116 106.608C609.108 106.786 610.097 106.959 611.085 107.126ZM608.498 104.829C608.948 105.243 609.41 105.648 609.868 106.054C608.806 105.869 607.741 105.678 606.673 105.479C606.196 105.097 605.727 104.706 605.258 104.316C606.343 104.493 607.422 104.664 608.498 104.829ZM606.026 102.466C606.483 102.919 606.952 103.36 607.419 103.804C606.279 103.624 605.133 103.438 603.985 103.244C603.498 102.825 603.02 102.397 602.542 101.969C603.708 102.142 604.87 102.308 606.026 102.466ZM603.665 100.034C604.122 100.523 604.594 100.999 605.063 101.478C603.851 101.308 602.634 101.13 601.411 100.943C600.922 100.489 600.442 100.027 599.963 99.5626C601.206 99.7277 602.44 99.8844 603.665 100.034ZM601.421 97.5307C601.875 98.0534 602.342 98.5638 602.807 99.0769C601.532 98.9176 600.248 98.7511 598.955 98.5749C598.468 98.0885 597.992 97.5911 597.517 97.0937C598.83 97.2478 600.132 97.3928 601.421 97.5307ZM599.304 94.9585C599.746 95.5124 600.2 96.0554 600.654 96.5989C599.319 96.4533 597.971 96.2998 596.612 96.136C596.133 95.6184 595.667 95.0892 595.201 94.5599C596.584 94.7016 597.952 94.8343 599.304 94.9585ZM597.123 92.2985C597.606 92.8668 598.078 93.4546 598.551 94.041C597.178 93.9116 595.789 93.7738 594.385 93.6262C593.916 93.08 593.465 92.5189 593.013 91.9584C594.401 92.0807 595.772 92.1938 597.123 92.2985ZM594.674 89.5403C595.231 90.1411 595.778 90.7634 596.324 91.3876C594.987 91.2816 593.632 91.1665 592.259 91.0429C591.782 90.4409 591.297 89.8563 590.81 89.2744C592.117 89.3713 593.406 89.4591 594.674 89.5403ZM591.886 86.6963C592.531 87.3296 593.172 87.9766 593.804 88.6378C592.572 88.5559 591.323 88.4681 590.055 88.3719C589.507 87.7354 588.953 87.1131 588.394 86.5006C589.577 86.5722 590.741 86.6365 591.886 86.6963ZM588.724 83.7802C589.473 84.4395 590.219 85.1072 590.95 85.8017C589.84 85.7412 588.712 85.6762 587.567 85.604C586.943 84.9408 586.318 84.2802 585.681 83.6456C586.714 83.695 587.728 83.7399 588.724 83.7802ZM571.469 72.4127C577.243 75.176 582.667 78.6358 587.703 82.8829C586.733 82.8413 585.746 82.7945 584.742 82.7438C580.594 78.734 576.163 75.3054 571.469 72.4127ZM557.833 67.3326C558.201 67.4347 558.565 67.5427 558.93 67.6493C565.959 71.3945 572.431 76.2528 578.287 82.3653C577.056 82.2834 575.807 82.195 574.538 82.0987C569.455 76.1793 563.871 71.2943 557.833 67.3326ZM552.827 66.0914C553.457 66.2305 554.085 66.371 554.709 66.5218C561.382 70.5485 567.516 75.6572 573.052 81.983C571.715 81.8764 570.361 81.7619 568.988 81.6378C564.087 75.4556 558.685 70.3106 552.827 66.0914ZM547.962 65.1415C548.771 65.2761 549.571 65.4243 550.37 65.579C556.615 69.821 562.353 75.0876 567.526 81.5032C566.153 81.3738 564.763 81.2353 563.359 81.0877C562.698 80.3113 562.047 79.5272 561.417 78.7268L561.416 78.7274C557.281 73.4784 552.786 68.9718 547.962 65.1415ZM543.128 64.447C544.069 64.5654 545.006 64.6902 545.938 64.8287C551.159 68.7989 555.996 73.546 560.413 79.152V79.154C560.887 79.7561 561.383 80.34 561.874 80.9284C560.538 80.7827 559.19 80.6286 557.83 80.4641C556.38 78.8919 554.984 77.2729 553.662 75.5948L553.661 75.5954C550.373 71.4205 546.857 67.7156 543.128 64.447ZM538.231 63.9464C539.276 64.0283 540.313 64.1245 541.343 64.2344C545.369 67.6473 549.146 71.5629 552.657 76.02V76.022C553.809 77.483 555.023 78.892 556.27 80.273C554.994 80.1137 553.709 79.9466 552.416 79.7704C550.105 77.455 547.926 75.0245 545.907 72.4634H545.906C543.47 69.371 540.91 66.5361 538.231 63.9464ZM533.27 63.6499C534.401 63.6967 535.525 63.7578 536.643 63.8326C539.538 66.5621 542.294 69.5752 544.904 72.8873V72.8893C546.733 75.2118 548.702 77.4199 550.771 79.5409C549.559 79.3699 548.342 79.1917 547.117 79.0051C543.879 75.9972 540.872 72.7813 538.154 69.3307L538.153 69.3314C536.576 67.3307 534.948 65.438 533.27 63.6499ZM528.213 63.5329C529.418 63.5394 530.615 63.5608 531.804 63.5966C533.648 65.5225 535.43 67.5739 537.149 69.7553V69.7572C539.659 72.9426 542.418 75.9238 545.369 78.7339C544.228 78.5538 543.083 78.3679 541.933 78.1735C537.7 74.5232 533.823 70.5453 530.399 66.1987L530.398 66.1993C529.68 65.2884 528.952 64.3996 528.213 63.5329ZM523.065 63.5953C524.332 63.5569 525.591 63.5361 526.84 63.5303C527.706 64.5303 528.558 65.5615 529.395 66.6233V66.6252C532.586 70.676 536.172 74.403 540.062 77.8523C538.999 77.6663 537.934 77.4745 536.865 77.2762C531.753 73.1747 527.104 68.6337 523.065 63.5953ZM518.149 63.8131C519.357 63.7448 520.562 63.685 521.757 63.6414C525.602 68.4991 530.011 72.8958 534.844 76.8932C533.867 76.7053 532.89 76.5122 531.909 76.3126C526.882 72.5551 522.254 68.4035 518.149 63.8131ZM513.655 64.1278C514.719 64.0381 515.777 63.9561 516.83 63.8866C520.69 68.2546 525.017 72.23 529.706 75.8536C528.827 75.6676 527.948 75.4771 527.068 75.282C522.234 71.914 517.731 68.2072 513.655 64.1278ZM509.61 64.5056C510.523 64.41 511.429 64.3248 512.334 64.2429C516.093 68.0492 520.219 71.5343 524.633 74.7307C523.868 74.5531 523.103 74.3724 522.338 74.1877C517.812 71.2443 513.546 68.0258 509.61 64.5056ZM506.04 64.91C506.789 64.819 507.535 64.7351 508.279 64.6525C511.802 67.8411 515.594 70.7872 519.6 73.5096C518.972 73.3503 518.342 73.1897 517.714 73.0252C513.617 70.5362 509.709 67.8372 506.04 64.91ZM502.974 65.3086C503.545 65.2318 504.117 65.1551 504.686 65.0823C507.814 67.6116 511.118 69.9731 514.567 72.1786C514.112 72.0531 513.656 71.9289 513.202 71.8002C509.658 69.7865 506.239 67.6265 502.974 65.3086ZM500.44 65.6668C500.821 65.6103 501.203 65.5504 501.583 65.4965C504.135 67.3339 506.783 69.0745 509.513 70.7228C509.283 70.6539 509.052 70.5869 508.823 70.5167C505.951 68.9926 503.151 67.3775 500.44 65.6668ZM498.461 65.962L499.021 65.8788C500.615 66.8983 502.24 67.8853 503.893 68.8398C502.054 67.9159 500.242 66.9575 498.461 65.962ZM6.20617 106.826L6.29337 106.878L5.54295 106.657L5.50332 106.635L6.20617 106.826ZM3.03013 104.909L3.41062 105.145L2.24009 104.814L1.8728 104.607L3.03013 104.909ZM-0.0701618 102.954L0.555182 103.353L-0.995844 102.936L-1.61238 102.57L-0.0701618 102.954ZM-3.08238 100.962L-2.27912 101.501C-2.90799 101.342 -3.53509 101.181 -4.1622 101.018L-4.9725 100.514C-4.34363 100.665 -3.71301 100.814 -3.08238 100.962ZM-6.01973 98.9267C-5.70706 99.149 -5.39262 99.372 -5.07555 99.5938C-5.80218 99.4189 -6.52705 99.2427 -7.25104 99.0645C-7.57604 98.8545 -7.89752 98.6438 -8.219 98.4332C-7.48708 98.5996 -6.75341 98.7641 -6.01973 98.9267ZM-8.86636 96.8532C-8.51758 97.1139 -8.16792 97.374 -7.81385 97.6341C-8.29827 97.5242 -8.78181 97.4149 -9.26535 97.3031L-10.2624 97.071C-10.627 96.8239 -10.9864 96.5749 -11.3457 96.3271C-10.5204 96.5047 -9.69428 96.6802 -8.86636 96.8532ZM-11.6258 94.7335C-11.2497 95.0306 -10.871 95.3278 -10.4861 95.6236C-11.3871 95.4305 -12.2873 95.2355 -13.1848 95.0365C-13.582 94.7543 -13.973 94.4708 -14.3615 94.1873C-13.4516 94.3726 -12.5392 94.554 -11.6258 94.7335ZM-14.2884 92.5683C-13.8938 92.8993 -13.4939 93.2296 -13.0887 93.5599C-14.069 93.3635 -15.0467 93.1639 -16.0226 92.9604C-16.4427 92.6444 -16.8584 92.3278 -17.2697 92.0111C-16.2771 92.201 -15.2836 92.3863 -14.2884 92.5683ZM-16.8514 90.355C-16.4445 90.7185 -16.0305 91.082 -15.6104 91.4441C-16.6647 91.2465 -17.7181 91.0455 -18.7679 90.8394C-19.2065 90.4916 -19.6381 90.1431 -20.0653 89.7946C-18.996 89.9864 -17.9241 90.1723 -16.8514 90.355ZM-19.3043 88.0917C-18.8912 88.4864 -18.4711 88.881 -18.0431 89.275C-19.1687 89.0787 -20.2943 88.8791 -21.4173 88.6736C-21.8665 88.2952 -22.3095 87.9155 -22.7455 87.5364C-21.6005 87.7263 -20.4519 87.9109 -19.3043 88.0917ZM-21.6392 85.7737C-21.2261 86.1996 -20.8051 86.6255 -20.3753 87.05C-21.5732 86.8582 -22.7692 86.6606 -23.9636 86.4577C-24.418 86.0494 -24.8655 85.6398 -25.3041 85.2301C-24.0851 85.418 -22.8626 85.5988 -21.6392 85.7737ZM-18.6455 87.3244C-19.1009 86.8862 -19.5474 86.4473 -19.9843 86.0078C19.6828 91.5371 60.7951 91.277 96.7136 82.1482C134.285 72.5986 173.094 58.1401 210.924 44.0456C286.011 16.0713 357.232 -10.4525 406.76 5.91706C357.369 -5.44524 289.495 19.8373 218.152 46.4176C180.34 60.5042 141.551 74.9563 104.091 84.4772C66.3721 94.0644 22.8641 93.8109 -18.6455 87.3244ZM-16.2093 89.5904C-16.6638 89.1821 -17.1112 88.7731 -17.5498 88.3628C23.7448 94.675 66.9411 94.8174 104.469 85.2795C142.04 75.73 180.85 61.2714 218.679 47.177C293.768 19.2014 364.989 -7.32303 414.517 9.04844C365.128 -2.31386 297.251 22.9686 225.907 49.5496C188.096 63.6369 149.306 78.0883 111.846 87.6092C72.511 97.6067 26.8839 96.9045 -16.2093 89.5904ZM-13.6621 91.8056C-14.1113 91.4272 -14.5543 91.0475 -14.9903 90.6684C27.8598 97.7797 73.1188 98.3512 112.224 88.4122C149.796 78.8627 188.604 64.4041 226.434 50.3097C300.043 22.8854 369.937 -3.14547 419.322 11.2637C419.607 11.4152 419.893 11.5693 420.176 11.724C370.971 1.53014 304.003 26.4745 233.662 52.6816C195.851 66.7683 157.061 81.2203 119.601 90.7412C78.6773 101.142 30.9425 99.9637 -13.6621 91.8056ZM-11.0137 93.9721C-11.4514 93.6243 -11.8839 93.2757 -12.311 92.9272C32.0214 100.852 79.3246 101.876 119.977 91.5443C157.549 81.9947 196.358 67.5362 234.188 53.4417C305.731 26.7873 373.766 1.44626 422.871 13.2735C423.359 13.5673 423.844 13.8671 424.326 14.1727C375.48 5.86699 310.052 30.2418 241.414 55.8136C203.603 69.9003 164.813 84.3524 127.354 93.8733C84.8664 104.672 35.0336 102.99 -11.0137 93.9721ZM-8.26744 96.0924C-8.68845 95.7771 -9.10329 95.4604 -9.51549 95.1431C36.2297 103.893 85.5605 105.394 127.731 94.6763C165.303 85.1267 204.112 70.6682 241.942 56.5737C311.408 30.6937 377.567 6.04905 426.299 15.4659C426.895 15.8697 427.485 16.2819 428.071 16.7039C379.684 10.3248 315.947 34.067 249.17 58.9463C211.358 73.033 172.569 87.485 135.109 97.006C91.0758 108.197 39.1538 105.985 -8.26744 96.0924ZM-5.4305 98.1685C-5.82772 97.8863 -6.21878 97.6028 -6.60808 97.3187C40.4803 106.904 91.8209 108.906 135.486 97.8077C173.057 88.2581 211.867 73.7996 249.696 59.7051C317.076 34.6021 381.342 10.6668 429.615 17.8457C430.262 18.3379 430.904 18.8418 431.54 19.3581C383.707 14.8508 321.749 37.9259 256.924 62.0777C219.113 76.1644 180.323 90.6164 142.863 100.137C97.3028 111.717 43.2969 108.948 -5.4305 98.1685ZM-2.50724 100.203C-2.87187 99.9559 -3.23123 99.7069 -3.59058 99.4592C44.7722 109.888 98.107 112.412 143.241 100.941C180.813 91.3915 219.621 76.9329 257.451 62.8384C322.714 38.5234 385.059 15.2969 432.777 20.3847C433.454 20.9576 434.123 21.5447 434.785 22.1455C387.599 19.4192 327.485 41.8109 264.679 65.2097C226.868 79.2964 188.078 93.7484 150.618 103.269C103.86 115.153 48.2046 111.926 -1.51021 100.434L-2.50724 100.203ZM0.503216 102.197L-0.463865 101.565C49.1038 112.844 104.417 115.91 150.995 104.072C188.567 94.5222 227.376 80.0636 265.206 65.9692C328.349 42.4442 388.758 19.9445 435.833 23.1156C436.513 23.7567 437.185 24.4127 437.85 25.0857C391.404 24.02 333.175 45.7108 272.432 68.3418C234.621 82.4284 195.831 96.8805 158.372 106.401C111.613 118.285 55.9571 115.058 6.24316 103.567C4.32133 103.122 2.40655 102.665 0.503216 102.197ZM3.59382 104.152L2.78176 103.646C3.81754 103.894 4.85684 104.139 5.8979 104.38C55.8197 115.918 111.735 119.154 158.749 107.204C196.321 97.6549 235.129 83.1963 272.96 69.1025C333.961 46.3753 392.411 24.6045 438.752 26.0122C439.432 26.7223 440.104 27.4498 440.766 28.1943C395.146 28.6527 338.84 49.6224 280.188 71.4744C242.376 85.5611 203.587 100.013 166.127 109.534C119.369 121.418 63.7131 118.19 13.9983 106.699C10.4981 105.89 7.0288 105.041 3.59382 104.152ZM6.75841 106.068L6.14011 105.702C8.62739 106.326 11.1323 106.929 13.6522 107.512C63.5739 119.05 119.489 122.286 166.504 110.336C204.075 100.787 242.884 86.3283 280.714 72.2339C339.557 50.311 396.027 29.2756 441.543 29.0779C442.211 29.8504 442.872 30.6404 443.523 31.4492C398.82 33.2991 344.47 53.5457 287.942 74.6058C250.131 88.6931 211.341 103.145 173.881 112.665C127.123 124.549 71.4665 121.322 21.7526 109.831C16.6873 108.66 11.6845 107.403 6.75841 106.068ZM9.99434 107.946L9.62706 107.739C13.5104 108.758 17.4394 109.727 21.4064 110.643C71.3282 122.182 127.244 125.417 174.258 113.468C211.83 103.918 250.638 89.4597 288.468 75.3652C345.14 54.2506 399.61 33.9642 444.215 32.3199C444.897 33.1814 445.598 34.0286 446.314 34.8615C402.579 37.9214 350.149 57.4502 295.696 77.7372C257.885 91.8238 219.095 106.276 181.635 115.797C134.877 127.681 79.2216 124.453 29.5068 112.962C22.8843 111.433 16.3693 109.754 9.99434 107.946ZM13.2981 109.789L13.2558 109.766C18.4761 111.193 23.7836 112.533 29.1607 113.776C79.0824 125.315 134.998 128.55 182.012 116.6C219.584 107.051 258.393 92.5924 296.223 78.4979C350.823 58.1557 403.383 38.5735 447.041 35.6983C447.843 36.606 448.665 37.4968 449.505 38.3713C406.708 42.4058 356.022 61.2831 303.449 80.8699C265.638 94.9565 226.848 109.409 189.389 118.93C142.631 130.813 86.9741 127.586 37.2602 116.095C29.0893 114.206 21.0805 112.093 13.2981 109.789ZM495.78 65.5004L495.744 65.5062C494.042 64.6447 492.362 63.7526 490.71 62.8293L491.266 62.7468C492.745 63.6935 494.251 64.6102 495.78 65.5004ZM497.9 65.1532C497.677 65.1883 497.452 65.2266 497.227 65.2637C495.69 64.382 494.176 63.473 492.689 62.5348C493.072 62.4776 493.456 62.4178 493.838 62.3631C495.166 63.3189 496.521 64.2481 497.9 65.1532ZM500.564 64.7539L499.302 64.9405C497.918 64.0452 496.558 63.1232 495.224 62.1759C495.794 62.0998 496.364 62.0224 496.932 61.9496C498.118 62.9087 499.329 63.843 500.564 64.7539ZM503.746 64.3124C503.139 64.3924 502.535 64.4678 501.925 64.553C500.689 63.6518 499.474 62.7266 498.286 61.7786C499.035 61.6876 499.779 61.605 500.523 61.5218C501.573 62.4737 502.648 63.4035 503.746 64.3124ZM507.413 63.8593C506.638 63.9483 505.863 64.0387 505.084 64.1369C503.984 63.237 502.907 62.3157 501.854 61.3735C502.766 61.2779 503.675 61.1934 504.579 61.1115C505.502 62.0471 506.446 62.9626 507.413 63.8593ZM511.539 63.4282C510.607 63.5159 509.673 63.6083 508.733 63.7104C507.768 62.8248 506.822 61.9204 505.9 60.9964C506.964 60.9067 508.023 60.8248 509.075 60.7558C509.877 61.6629 510.698 62.5536 511.539 63.4282ZM516.101 63.0511C515.02 63.1271 513.935 63.2091 512.843 63.3046C512.008 62.4464 511.191 61.5718 510.395 60.6811C511.603 60.6128 512.807 60.553 514.003 60.5094C514.685 61.3703 515.384 62.2181 516.101 63.0511ZM521.066 62.7702C519.851 62.8202 518.628 62.8833 517.398 62.9613C516.685 62.1427 515.989 61.3098 515.311 60.4632C516.578 60.4255 517.836 60.4041 519.086 60.3982C519.756 61.1707 520.414 61.9613 521.066 62.7702ZM526.065 62.6466C524.843 62.659 523.612 62.6876 522.375 62.7273C521.744 61.9347 521.106 61.159 520.459 60.4008C521.664 60.408 522.861 60.4288 524.051 60.4645C524.73 61.1746 525.401 61.9021 526.065 62.6466ZM530.904 62.6707C529.754 62.6447 528.598 62.6291 527.434 62.6323C526.802 61.9119 526.162 61.2071 525.516 60.5179C526.648 60.5647 527.771 60.6258 528.888 60.7006C529.567 61.3417 530.239 61.9984 530.904 62.6707ZM535.594 62.8625C534.53 62.8007 533.458 62.7546 532.38 62.7169C531.753 62.0679 531.117 61.434 530.475 60.8137C531.521 60.8956 532.558 60.9919 533.588 61.1017C534.264 61.6746 534.933 62.2617 535.594 62.8625ZM540.107 63.2078C539.143 63.1167 538.173 63.0361 537.199 62.9665C536.596 62.4041 535.988 61.8534 535.373 61.315C536.315 61.4333 537.253 61.5582 538.185 61.6973C538.832 62.1882 539.472 62.6921 540.107 63.2078ZM544.396 63.6857C543.563 63.5758 542.729 63.4717 541.887 63.3814C541.332 62.9145 540.772 62.4574 540.207 62.0094C541.019 62.1447 541.824 62.2936 542.626 62.4483C543.221 62.8514 543.811 63.2643 544.396 63.6857ZM548.403 64.2871C547.763 64.1785 547.115 64.0829 546.468 63.986C546.008 63.6388 545.546 63.2975 545.08 62.9613C545.707 63.0998 546.333 63.2396 546.954 63.3898C547.439 63.683 547.922 63.9821 548.403 64.2871ZM552.022 64.9743C551.648 64.897 551.273 64.8209 550.898 64.7468C550.626 64.5634 550.353 64.3814 550.079 64.2013C550.448 64.3033 550.812 64.4113 551.179 64.5179C551.461 64.6681 551.741 64.8209 552.022 64.9743ZM761.658 138.968L762.297 138.768V137.842C760.75 138.325 759.554 138.703 758.726 138.967H761.658V138.968ZM686.964 138.968C679.001 137.345 670.957 135.354 663.058 132.915C672.655 135.493 682.346 137.464 691.742 138.968H697.374C683.735 137.016 669.291 134.103 655.305 129.783C673.985 134.803 693.029 137.525 709.542 138.968H721.224C700.302 137.757 673.158 134.56 647.551 126.651C697.318 140.024 749.663 137.096 749.898 137.083L750.002 137.077L750.093 137.048C750.167 137.024 754.647 135.562 762.296 133.259V132.34C754.876 134.569 750.313 136.045 749.715 136.24C746.959 136.384 690.371 139.14 639.793 123.518C689.562 136.893 741.909 133.964 742.143 133.951L742.247 133.945L742.338 133.916C742.434 133.885 750.002 131.415 762.295 127.832V126.915C750.332 130.395 742.745 132.852 741.959 133.107C739.219 133.25 683.3 135.97 632.959 120.664L632.825 120.594C682.354 133.727 734.155 130.831 734.388 130.818L734.492 130.813L734.584 130.784C734.699 130.747 745.49 127.224 762.295 122.474V121.563C745.918 126.183 735.148 129.669 734.205 129.976C731.544 130.114 678.725 132.684 629.572 118.811C629.369 118.696 629.169 118.576 628.967 118.46C677.28 130.445 726.407 127.699 726.635 127.687L726.738 127.681L726.83 127.652C726.962 127.609 741.123 122.987 762.295 117.184V116.278C741.622 121.931 727.536 126.491 726.451 126.843C723.871 126.978 674.139 129.396 626.312 116.898C626.005 116.712 625.706 116.517 625.402 116.328C672.324 127.154 718.659 124.566 718.88 124.555L718.984 124.549L719.075 124.52C719.222 124.472 736.886 118.704 762.295 111.959V111.059C737.45 117.64 719.913 123.316 718.696 123.711C716.199 123.841 669.533 126.11 623.174 114.925C622.796 114.679 622.426 114.424 622.052 114.175C667.426 123.863 710.911 121.433 711.125 121.422L711.228 121.417L711.319 121.387C711.481 121.335 732.797 114.375 762.295 106.802V105.906C733.405 113.305 712.281 120.143 710.941 120.578C708.528 120.704 664.899 122.826 620.146 112.887C619.719 112.589 619.301 112.282 618.879 111.98C662.553 120.567 703.162 118.301 703.369 118.29L703.473 118.284L703.564 118.255C703.74 118.198 728.849 110 762.294 101.714V100.822C729.494 108.926 704.642 116.972 703.185 117.446C700.861 117.567 660.238 119.541 617.229 110.782C616.771 110.44 616.321 110.089 615.87 109.74C657.697 117.272 695.415 115.167 695.615 115.158L695.718 115.152L695.81 115.123C695.999 115.061 725.05 105.577 762.294 96.6965V95.8115C725.728 104.505 697.002 113.805 695.431 114.316C693.196 114.432 655.553 116.26 614.426 108.614C613.948 108.231 613.479 107.839 613.008 107.448C652.837 113.977 687.667 112.037 687.859 112.028L687.963 112.022L688.055 111.992C688.257 111.927 721.404 101.104 762.293 91.7549V90.8745C722.11 100.035 689.356 110.638 687.676 111.184C685.533 111.295 650.84 112.976 611.735 106.377C611.248 105.957 610.77 105.529 610.292 105.102C647.976 110.684 679.921 108.905 680.105 108.896L680.209 108.89L680.301 108.86C680.515 108.791 717.922 96.5768 762.293 86.8888V86.0156C718.649 95.5131 681.708 107.471 679.922 108.052C677.874 108.158 646.103 109.698 609.162 104.075C608.673 103.622 608.193 103.159 607.715 102.695C643.101 107.39 672.176 105.771 672.351 105.763L672.455 105.757L672.546 105.728C672.774 105.654 714.614 91.9916 762.293 82.1059V81.2385C715.355 90.9376 674.059 104.304 672.168 104.919C670.218 105.02 641.339 106.42 606.704 101.705C606.218 101.219 605.743 100.723 605.268 100.225C638.208 104.097 664.429 102.639 664.596 102.63L664.7 102.624L664.791 102.595C665.031 102.518 711.49 87.3485 762.292 77.4121V76.5493C712.238 86.303 666.406 101.138 664.412 101.786C662.565 101.882 636.545 103.143 604.362 99.2667C603.883 98.7492 603.416 98.2199 602.95 97.6906C633.292 100.806 656.685 99.506 656.841 99.4982L656.945 99.4923L657.037 99.4631C657.288 99.3818 708.564 82.6404 762.292 72.8126V71.9543C709.316 81.6065 658.755 97.9728 656.658 98.6542C654.919 98.7452 631.724 99.8682 602.135 96.7576C601.666 96.2108 601.216 95.649 600.762 95.0892C628.353 97.517 648.94 96.374 649.087 96.3662L649.191 96.361L649.283 96.3317C649.547 96.2465 705.854 77.862 762.293 68.3158V67.4607C706.603 76.8399 651.104 94.8083 648.904 95.5229C647.276 95.6074 626.865 96.5957 600.008 94.1743C599.531 93.5729 599.046 92.9883 598.559 92.4064C623.313 94.2341 641.195 93.2413 641.333 93.2341L641.436 93.2283L641.528 93.199C641.803 93.1099 703.377 73.0044 762.292 63.9282V63.0797C704.117 72.0017 643.451 91.6431 641.149 92.3908C639.635 92.4695 621.879 93.3297 597.804 91.5026C597.257 90.8661 596.702 90.2445 596.143 89.632C618.089 90.961 633.45 90.1086 633.577 90.1021L633.681 90.0962L633.772 90.067C634.06 89.974 701.158 68.0622 762.291 59.6628V58.8241C701.883 67.0843 635.798 88.4772 633.394 89.2581C631.992 89.331 616.677 90.0728 595.315 88.7347C594.69 88.0696 594.063 87.409 593.426 86.7731C612.651 87.7002 625.705 86.9759 625.823 86.9694L625.927 86.9642L626.018 86.935C626.318 86.8381 699.226 63.0315 762.291 55.5393V54.7044C699.928 62.0764 628.147 85.3121 625.639 86.1268C624.348 86.1937 611.251 86.8283 592.498 85.8829C591.776 85.1885 591.048 84.5052 590.311 83.8419C606.966 84.4544 617.961 83.8439 618.068 83.8387L618.172 83.8328L618.264 83.8036C618.577 83.7028 697.615 57.8956 762.291 51.5678V50.7356C698.287 56.9658 620.497 82.1462 617.885 82.9947C616.701 83.0565 605.592 83.5929 589.298 82.9492C581.552 76.2346 572.898 71.3769 563.453 68.1044C560.935 66.9328 558.352 65.8918 555.707 64.975C553.189 63.804 550.605 62.763 547.96 61.8462C545.44 60.6746 542.855 59.6329 540.209 58.7148C537.691 57.5438 535.106 56.5022 532.461 55.5848C529.94 54.4131 527.355 53.3708 524.706 52.4527C522.185 51.2798 519.598 50.2381 516.949 49.3201C514.429 48.1484 511.844 47.1068 509.197 46.1893C506.676 45.017 504.091 43.9754 501.444 43.0573C498.922 41.8843 496.335 40.8427 493.687 39.9246C491.166 38.753 488.581 37.7113 485.934 36.7933C483.413 35.6209 480.828 34.5793 478.18 33.6612C475.658 32.4883 473.072 31.4466 470.423 30.5285C467.902 29.3569 465.317 28.3153 462.671 27.3972C460.15 26.2249 457.565 25.1832 454.917 24.2651C452.395 23.0922 449.809 22.0506 447.16 21.1325C444.64 19.9608 442.055 18.9192 439.408 18.0011C436.884 16.8281 434.297 15.7858 431.647 14.8671C429.123 13.6941 426.535 12.6506 423.883 11.7318C421.339 10.5498 418.729 9.49968 416.056 8.57574C365.957 -14.658 290.358 13.4952 210.397 43.2855C172.586 57.3722 133.796 71.8242 96.3366 81.3452C60.2605 90.5143 18.8892 90.6814 -20.9637 85.0032C-22.5438 83.3569 -23.9997 81.7054 -25.3138 80.05C-25.6 79.6891 -25.925 79.2632 -26.2861 78.7775V80.5168C-25.157 81.9369 -23.9239 83.3536 -22.6001 84.7678C-23.8306 84.5877 -25.0592 84.4018 -26.2861 84.21V85.6892L-25.7973 86.143L-26.2861 86.0572V86.9337L-24.6056 87.223C-24.1978 87.5871 -23.7839 87.9499 -23.3646 88.3121C-24.3396 88.1294 -25.3138 87.9434 -26.2861 87.7542V89.1346L-25.9955 89.3596L-26.2861 89.2965V90.184C-25.6493 90.3206 -25.0134 90.4552 -24.3749 90.5885C-24.0261 90.8492 -23.6764 91.1093 -23.3224 91.3694C-23.8068 91.2595 -24.2903 91.1502 -24.7739 91.0384L-25.7709 90.8069L-26.2861 90.4545V91.6067L-25.541 92.106L-26.2861 91.9168V96.6334C-25.5806 96.9136 -24.8725 97.1919 -24.1608 97.4696C-21.6225 98.5326 -19.0374 99.5762 -16.411 100.6C-13.8735 101.663 -11.2902 102.706 -8.66379 103.728C-6.12014 104.794 -3.53069 105.84 -0.898081 106.866C1.64028 107.929 4.22533 108.972 6.85177 109.996C9.3919 111.06 11.9778 112.105 14.606 113.128C17.1514 114.195 19.7426 115.241 22.377 116.267C24.911 117.328 27.4899 118.37 30.1128 119.391C32.6564 120.457 35.2468 121.504 37.8802 122.528C52.8242 128.789 69.3641 134.374 86.8217 138.968H90.3087C85.0725 137.634 79.9156 136.209 74.8548 134.703C80.2151 136.175 85.6688 137.555 91.1956 138.833L91.7901 138.968H95.7483C94.3417 138.659 92.9386 138.343 91.5409 138.019C83.2 136.092 75.0291 133.93 67.0943 131.569C72.4564 133.042 77.9119 134.423 83.4413 135.7C88.5418 136.879 93.7058 137.969 98.9155 138.968H103.637C96.9417 137.76 90.3122 136.396 83.7875 134.887C75.451 132.961 67.2828 130.8 59.3515 128.441C64.7101 129.912 70.162 131.291 75.6871 132.568C86.8129 135.14 98.2364 137.298 109.793 138.968H116.117C102.525 137.215 89.0747 134.77 76.0332 131.755C67.6915 129.828 59.5198 127.666 51.5849 125.305C56.9479 126.777 62.4043 128.158 67.9337 129.436C88.4141 134.17 109.904 137.504 131.373 138.968H178.31C192.969 137.882 207.246 135.701 220.785 132.261C258.357 122.712 297.165 108.253 334.996 94.1587C382.359 76.5122 428.184 59.4431 467.999 53.3513C469.478 54.2974 470.984 55.2155 472.513 56.1056C433.268 62.6161 388.476 79.2983 342.222 96.5307C304.411 110.617 265.621 125.069 228.162 134.59C221.087 136.388 213.809 137.839 206.378 138.968H211.716C217.429 137.976 223.045 136.789 228.539 135.393C266.111 125.843 304.919 111.385 342.75 97.2901C389.313 79.9427 434.387 63.1538 473.726 56.802C475.362 57.7304 477.023 58.6271 478.708 59.4944C439.838 66.1831 395.617 82.6586 349.977 99.6627C312.165 113.749 273.376 128.201 235.916 137.722C234.199 138.159 232.469 138.572 230.729 138.968H234.508C235.105 138.822 235.699 138.676 236.293 138.525C273.865 128.976 312.674 114.517 350.503 100.423C396.5 83.286 441.043 66.6954 480.041 60.172C481.849 61.0783 483.683 61.9516 485.54 62.7923C446.893 69.5804 403.011 85.9246 357.731 102.795C322.337 115.981 286.089 129.486 250.874 138.968H254.2C288.583 129.513 323.826 116.383 358.258 103.555C403.934 86.537 448.181 70.0537 486.985 63.4373C488.981 64.3176 491.001 65.161 493.042 65.9685C454.457 72.7833 410.667 89.093 365.484 105.927C333.827 117.721 301.484 129.77 269.809 138.968H272.936C303.814 129.859 335.236 118.153 366.011 106.687C411.644 89.6853 455.85 73.217 494.627 66.5875C495.011 66.7351 495.396 66.882 495.781 67.0277C498.344 68.1369 500.946 69.1851 503.578 70.1773C506.123 71.2781 508.706 72.3184 511.32 73.3041C513.869 74.4068 516.456 75.4491 519.074 76.4361C521.625 77.5395 524.215 78.5825 526.834 79.5701C529.376 80.669 531.956 81.7086 534.566 82.693C537.122 83.7984 539.716 84.8439 542.34 85.8335C544.888 86.9356 547.475 87.9772 550.091 88.9642C552.641 90.067 555.229 91.1106 557.847 92.0969C560.394 93.1984 562.98 94.24 565.595 95.2263C568.145 96.3291 570.733 97.3727 573.352 98.3597C575.906 99.4644 578.499 100.509 581.121 101.498C583.665 102.598 586.247 103.637 588.858 104.622C591.413 105.728 594.007 106.773 596.63 107.762C599.177 108.864 601.763 109.905 604.377 110.891C606.927 111.994 609.516 113.037 612.135 114.024C614.677 115.125 617.26 116.164 619.871 117.149C622.422 118.252 625.01 119.295 627.629 120.282C630.18 121.385 632.769 122.428 635.388 123.416C637.935 124.517 640.52 125.559 643.135 126.545C655.787 132.018 669.384 136.03 682.849 138.968H686.964Z" fill="white"/>
</mask>
<g mask="url(#mask0_1514_724)">
<path d="M762.297 -14.6582H-26.2861V143.342H762.297V-14.6582Z" fill="url(#paint0_linear_1514_724)"/>
</g>
</g>
<defs>
<linearGradient id="paint0_linear_1514_724" x1="367.435" y1="139.076" x2="368.013" y2="0.0815619" gradientUnits="userSpaceOnUse">
<stop stop-color="#003780"/>
<stop offset="1" stop-color="#29C5FF"/>
</linearGradient>
</defs>
</svg>
